/* XPM */
static char *_811f954b7d446b5af277e085b82ad112ry9nvkczepPT0Hc[] = {
/* columns rows colors chars-per-pixel */
"50 50 180 2 ",
"   c None",
".  c #28241C",
"X  c #322E1D",
"o  c #2E2F27",
"O  c #292A29",
"+  c #2D312E",
"@  c #313128",
"#  c #3D3929",
"$  c #2C2F31",
"%  c #302F31",
"&  c #2D3134",
"*  c #2F343A",
"=  c #353534",
"-  c #3D3730",
";  c #353835",
":  c #393936",
">  c #363738",
",  c #383738",
"<  c #3B3B3B",
"1  c #37393A",
"2  c #483315",
"3  c #633813",
"4  c #7F3E16",
"5  c #463D2E",
"6  c #4A3E27",
"7  c #583C29",
"8  c #473A34",
"9  c #6A2C28",
"0  c #772F20",
"q  c #7C2F22",
"w  c #603D2F",
"e  c #683D37",
"r  c #3F413D",
"t  c #63441A",
"y  c #7C4C13",
"u  c #6C501D",
"i  c #7A591F",
"p  c #4E4120",
"a  c #4D432D",
"s  c #5B452D",
"d  c #5C502D",
"f  c #444034",
"g  c #4D4433",
"h  c #41433E",
"j  c #49413C",
"k  c #524A39",
"l  c #59533C",
"z  c #6A4720",
"x  c #685224",
"c  c #705523",
"v  c #7C5B24",
"b  c #705928",
"n  c #69513D",
"m  c #3F3F40",
"M  c #403F40",
"N  c #424341",
"B  c #464943",
"V  c #494C45",
"C  c #4C4E49",
"Z  c #4C5146",
"A  c #4E5349",
"S  c #4F584F",
"D  c #51564B",
"F  c #545A4D",
"G  c #575743",
"H  c #545D51",
"J  c #585F51",
"K  c #68584B",
"L  c #5E624F",
"P  c #5C6353",
"I  c #5F6955",
"U  c #5B6858",
"Y  c #75644F",
"T  c #606757",
"R  c #6F6750",
"E  c #616957",
"W  c #646D5A",
"Q  c #67715C",
"!  c #69735E",
"~  c #7D735D",
"^  c #6B7660",
"/  c #6E7962",
"(  c #797660",
")  c #717D65",
"_  c #9D1E17",
"`  c #B90511",
"'  c #BB0D12",
"]  c #A01F19",
"[  c #AA1F1B",
"{  c #BB1313",
"}  c #B61915",
"|  c #BC1B15",
" . c #B51C1B",
".. c #95201E",
"X. c #88391C",
"o. c #983A17",
"O. c #A4231D",
"+. c #A82716",
"@. c #B12116",
"#. c #BE2416",
"$. c #BF2A16",
"%. c #B42D12",
"&. c #A73619",
"*. c #882E23",
"=. c #813426",
"-. c #873C2F",
";. c #873A33",
":. c #9B3F35",
">. c #AB2A23",
",. c #B12724",
"<. c #AF3024",
"1. c #A53029",
"2. c #A83930",
"3. c #C10F11",
"4. c #C01912",
"5. c #C72A0F",
"6. c #C22D13",
"7. c #C02F18",
"8. c #C33112",
"9. c #C13418",
"0. c #C23B19",
"q. c #C63912",
"w. c #874616",
"e. c #AF4B11",
"r. c #BA5817",
"t. c #8B6119",
"y. c #9B6E1D",
"u. c #A26A17",
"i. c #BE6F10",
"p. c #B8641A",
"a. c #B27516",
"s. c #BB7117",
"d. c #B27816",
"f. c #8B4C24",
"g. c #8E5B24",
"h. c #895D2D",
"j. c #8F493B",
"k. c #915A3A",
"l. c #B34921",
"z. c #A44037",
"x. c #CF450E",
"c. c #C5520F",
"v. c #D1590E",
"b. c #C3431B",
"n. c #C54E1D",
"m. c #CF5B10",
"M. c #C7541E",
"N. c #C7591F",
"B. c #C85D1F",
"V. c #C05214",
"C. c #D05610",
"Z. c #D15D10",
"A. c #CE780F",
"S. c #D07A10",
"D. c #D07411",
"F. c #C96420",
"G. c #CB6C22",
"H. c #CC7223",
"J. c #CD7824",
"K. c #83594B",
"L. c #955545",
"P. c #81604F",
"I. c #826C57",
"U. c #758167",
"Y. c #758168",
"T. c #CE8125",
"R. c #D08726",
"E. c #D08C27",
"W. c #D29328",
"Q. c #D39A29",
"!. c #D4A02A",
"~. c #D5A42B",
"^. c #D5AA2C",
"/. c #D8B62E",
"(. c #D9BD2F",
"). c #D9BF2F",
"_. c #D8B82E",
"`. c #DAC130",
"'. c #DAC530",
"]. c #DBC831",
/* pixels */
"                                                                                                    ",
"                                                                                                    ",
"                                                                                                    ",
"                                                    (.`.`._.W.B.#.{ ' { {                           ",
"                                                  (.(.`.'._.W.N.#.{ ' { {                           ",
"                                                  (.(.`.'./.R.n.#.' ' ' '                           ",
"                                                            G.9.| { ' '                             ",
"                                                              #.{ { {                               ",
"                                                              #.| | 9.                              ",
"                                                            J.0.| $.N.Q.~.H.9.                      ",
"                                                        ]./.E.M.#.9.G.!.!.G.9.{                     ",
"                                                        /./.W.N.$.9.H.~.!.G.9.{ '                   ",
"                                                      F.!./.Q.B.$.0.H.^.~.G.9.{ `                   ",
"                                      ).`.].      ` | n.E.^.W.N.$.9.H.~.!.G.9.{ `                   ",
"                                      ~.!.Q.      ` | b.H.W.T.n.$.9.F.E.E.B.$.{ '                   ",
"                                      H.G.B.b.| ' ' { 7.n.F.N.0.| $.b.F.B.b.#.{ '                   ",
"                                      0.9.7.#.{ { { { #.$.9.$.#.| | 7.9.7.#.| { {                   ",
"                                      { { { { { { { { { { { | { { { ' { { { { {                     ",
"                                        ' ' { { { { { ' { ' ' { { { ' 3.' ' 3.                      ",
"                                                { { { { { ' { { { { ' ' 3.3.                        ",
"                                                  { { { { { { { { {  . . .]                         ",
"                                                  { { { { { { ' '  .,.2.:.j.                        ",
"                          @ @ r 5 7 =.] { 3.{ { {       { { { ' { ,.2.L.Y K 8 & $ $ %               ",
"                        ; @ r r g s =.] { { { { {       { { { { 4.<.L.I.! F N < ; ; , ,             ",
"                        h h h Z G n -.O.{ 3.3.{ { {     { { #.5.q.l.k.Y U H A V V h h r <           ",
"                    = < V F P I W Y j.>.{ 3.3.{ { { { { ' { 5.x.Z.p.h.G S H U U U P L Z h ;         ",
"                  $ = < Z L Q / ) ~ L.1. .{ } { { { { { { { 6.C.A.a.v g h S ^ ) ! ! U Z r = =       ",
"                  = = ; h D P ! / ~ K.-..._ O.+.@.| { ' ' { #.r.s.y.c # < S ^ ) / E L j , = %       ",
"            N N r > = = r r Z U ^ ! K e 9 0 X.o.&.@.{ ' ' { @.&.g.b a - r S Q ! I S h r : = +       ",
"        < r m N r : ; ; ; : r A I E J j 5 7 t w.o.+.} 4.3.| [ =.w 8 : = r A I U L r : ; = ; =       ",
"        < < m < r r r r r h B Z L F V < ; # p t 4 o.%.6.5.8.&.=.8 > & = ; h F L A B h h h h r       ",
"      < 1 < < 1 r V D F P P P S Z B r 1 @ X X X 3 o.e.c.Z.v.r.f.5 * & = ; r h Z F L L U F D V h = = ",
"< < < 1 < 1 = = 8 A P W / / ^ J h : : = = O . . 2 y u.i.A.A.s.g.k ; & = = = : r F Q / / W I D h ; % ",
"< < 1 < < 1 = = m C J Q ) ) ^ J h = : < : ; + @ p u t.u.d.d.y.v g < 1 < < ; = < D Q ) ) ! I D < ; % ",
"      < < < 1 < m V D P W ) ! H h ; : V Z A A Z l d x u v i b a 8 < B A V r ; < A Q / ! T D N < = % ",
"        < < < m N N B A P W T D h : h D I Q ! Q L k f a 6 a 5 - ; < Z P L Z : < Z I Q I D B h < = = ",
"        < < M N M M M B H J J D r < V P Q / / ! U Z N < < r : ; ; r D E I A h r V J J H V M < > = % ",
"      < < < M < m < < M B D D B m m D I ! Q E P P H H S S C B < ; r F E W F N < B D D V N < 1 = ;   ",
"< < < 1 < < < < < 1 , < M C B M N B A I Q L V j Z I Q ^ U U D h : r A E E F V N M B B N < , =       ",
"< < 1 < < < < < 1 , , < < M M M m B A P P A h , B I ) ) U.Q P B < r Z P P F B N M M N < < , ,       ",
"            < < < , , , < < 8 m < M B D D V < , B T ) ) ) ^ U A N M V D D V M < M 8 m m >           ",
"              < < 1 , , 1 < 1 > = 1 M B B M , , B J ! ) / ! P A B M B V B M < ; 1                   ",
"              < < 1 < < < < < ; = > 1 8 M < 1 1 h F T W Q E J A N M M N M < ; =                     ",
"                  < < < < 1 1 > = > 1 < m < < < h A J J J J S B m m m M M < >                       ",
"                    < < 1 < , , , , < < < < m M N V C C C C B m 1 1 < M N m                         ",
"                    < < < < < < 1 < < < < < M N N N M B N N m m = = < M N                           ",
"                              < < < < < < M M M M M M M M 8 < 1 = , < M                             ",
"                                1 < < 1 < < < < M < < < < < <                                       ",
"                                < < < 1 < < < < < < < < < < <                                       ",
"                                < < 1 < , < < , , , < , , <                                         "
};
