/* XPM */
static char *ea79618841364c64ae1e898d6ec9acbcVIbttUyGgoSbkBYY[] = {
/* columns rows colors chars-per-pixel */
"50 50 226 2 ",
"   c None",
".  c #0D0E0E",
"X  c #05090E",
"o  c #0B0C13",
"O  c #0D1114",
"+  c #141414",
"@  c #1C1312",
"#  c #1C1A14",
"$  c #1C1B1B",
"%  c #241A0B",
"&  c #231B14",
"*  c #231F1B",
"=  c #291B13",
"-  c #390E0E",
";  c #292619",
":  c #34261A",
">  c #3B351F",
",  c #1E2124",
"<  c #242424",
"1  c #2C2A23",
"2  c #29292A",
"3  c #342D23",
"4  c #3D3526",
"5  c #343434",
"6  c #2D3130",
"7  c #4C0303",
"8  c #4A0707",
"9  c #580706",
"0  c #461A16",
"q  c #760305",
"w  c #680F09",
"e  c #49260F",
"r  c #562B0D",
"t  c #572A0A",
"y  c #4A3A0C",
"u  c #57331B",
"i  c #562E12",
"p  c #7B3A0E",
"a  c #6B3A16",
"s  c #733811",
"d  c #4B3C2B",
"f  c #443A29",
"g  c #5B3E2E",
"h  c #553E2B",
"j  c #412D20",
"k  c #623C22",
"l  c #59490E",
"z  c #524315",
"x  c #565315",
"c  c #50490D",
"v  c #634A0D",
"b  c #685A0D",
"n  c #70590C",
"m  c #78630E",
"M  c #726E18",
"N  c #4D402E",
"B  c #565525",
"V  c #574833",
"C  c #534635",
"Z  c #64462C",
"A  c #7A4C2C",
"S  c #624832",
"D  c #6C5534",
"F  c #755838",
"G  c #66652A",
"H  c #72712D",
"J  c #7F7E2D",
"K  c #797830",
"L  c #58595A",
"P  c #44484B",
"I  c #715943",
"U  c #7C6442",
"Y  c #76644F",
"T  c #6D604E",
"R  c #656463",
"E  c #6F7375",
"W  c #7D7772",
"Q  c #890307",
"!  c #950609",
"~  c #8A1C12",
"^  c #8F130C",
"/  c #A80303",
"(  c #8A3D08",
")  c #963414",
"_  c #CF0404",
"`  c #9A4409",
"'  c #944712",
"]  c #B55818",
"[  c #B54B04",
"{  c #866603",
"}  c #8D7A06",
"|  c #9A7708",
" . c #906E08",
".. c #A27F08",
"X. c #985426",
"o. c #865433",
"O. c #94502F",
"+. c #A64129",
"@. c #AB5439",
"#. c #B46833",
"$. c #C95303",
"%. c #CA580A",
"&. c #D75903",
"*. c #E35D02",
"=. c #DC610D",
"-. c #E96307",
";. c #FD6D0A",
":. c #F76806",
">. c #FF710B",
",. c #E86E1B",
"<. c #FE7313",
"1. c #FD791B",
"2. c #F46F14",
"3. c #C96726",
"4. c #CF773D",
"5. c #F87C27",
"6. c #E97324",
"7. c #B45E44",
"8. c #866E4A",
"9. c #8C7148",
"0. c #95784C",
"q. c #84755B",
"w. c #9A7E54",
"e. c #A67B4D",
"r. c #B7774B",
"t. c #897B65",
"y. c #C37547",
"u. c #998F06",
"i. c #B48A07",
"p. c #B09308",
"a. c #9D9922",
"s. c #BFBB32",
"d. c #B2A608",
"f. c #CB9B05",
"g. c #D0B005",
"h. c #E6B601",
"j. c #E6BF04",
"k. c #E3AC00",
"l. c #FF832D",
"z. c #F98639",
"x. c #ED8137",
"c. c #DEB129",
"v. c #ECBF3B",
"b. c #EDC902",
"n. c #F3C501",
"m. c #EBDA06",
"M. c #F8D904",
"N. c #F0D416",
"B. c #FDEA05",
"V. c #FFE502",
"C. c #FFF203",
"Z. c #FFF30D",
"A. c #FFFC0A",
"S. c #FDEB19",
"D. c #FFF314",
"F. c #FFF91C",
"G. c #F2CF2F",
"H. c #FFF92A",
"J. c #EAE53C",
"K. c #FFF732",
"L. c #FFFB3D",
"P. c #FFF934",
"I. c #EFE72D",
"U. c #D3C609",
"Y. c #AB8A5A",
"T. c #A78755",
"R. c #B5895C",
"E. c #BD975D",
"W. c #B2834E",
"Q. c #BAB85B",
"!. c #8C806A",
"~. c #BC9763",
"^. c #AB9678",
"/. c #C98655",
"(. c #C19A5F",
"). c #D88B55",
"_. c #EF945D",
"`. c #F89758",
"'. c #F88F4A",
"]. c #C29C64",
"[. c #D6976C",
"{. c #F29E64",
"}. c #D9AB6C",
"|. c #C9A167",
" X c #E1AD6D",
".X c #E2B371",
"XX c #E8BA79",
"oX c #D6D347",
"OX c #EDC952",
"+X c #FFFA46",
"@X c #FFFD4D",
"#X c #F8F549",
"$X c #FCFA51",
"%X c #EFEC4E",
"&X c #EDC37C",
"*X c #F3C27A",
"=X c #EAC666",
"-X c #FFFD65",
";X c #FFFD77",
":X c #8C8F91",
">X c #A79386",
",X c #A79C95",
"<X c #B8A189",
"1X c #BFB79D",
"2X c #9EA4A7",
"3X c #B2B1A6",
"4X c #DCBA98",
"5X c #D1B28F",
"6X c #E5BE86",
"7X c #E1BC95",
"8X c #F1BA93",
"9X c #DCC39C",
"0X c #E9C38C",
"qX c #EAC896",
"wX c #F4C888",
"eX c #FFFE8C",
"rX c #D9C8BD",
"tX c #E9CDA4",
"yX c #F5D7AA",
"uX c #EDCFB3",
"iX c #FFFEA7",
"pX c #B6B8C2",
"aX c #FEF8D2",
"sX c #FFFDEA",
"dX c #FFFFFF",
"fX c #D6CCC5",
/* pixels */
"                                                                                                    ",
"                                                                                                    ",
"                                                                                                    ",
"                                                                                                    ",
"                                                                                                    ",
"                                                                                                    ",
"                                            o o o o o o o X o                                       ",
"                                            x x B x c x B B B 4                                     ",
"                                  # $ @ + c U.I.J.N.m.m.J.%XoXG +                                   ",
"                                ; J a.u.} ..h.S.H.P.F.A.F.H.H.s.K +                                 ",
"                                ; Q.-XL.N.k.h.m.D.+XH.Z.Z.D.Z.L.oXB ;                               ",
"                                6 3XsXaXOXk.V.B.D.+XK.Z.P.+X+X@X$XoXH +                             ",
"                                2 3XdXdX=Xh.B.C.Z.+XK.D.L.;XiX;X$X$XK o                             ",
"                              % f 1XsXaXOXn.B.B.D.+XK.Z.L.eXaXeX$X#XH O                             ",
"                            O l i.c.v.v.N.B.C.C.D.+XK.Z.L.-X;X-X$X$XH o                             ",
"                              l  .{ { { u.d.b.M.M.G.S.A.H.K.H.K.L.$XH +                             ",
"                                # ; ; ; ; z i.g.f.f.h.m.B.B.B.Z.H.L.H o                             ",
"                                @ V w.T.0.F z y y y c b f.b.b.B.A.S.M o                             ",
"                                d o./..X.Xe.0 : f f 3 j { | | u.g.m.n o                             ",
"                                e.) +. XXX/.^ O.R.T.0.D 3 % ; = l f.n # #                           ",
"                                W.~ )  XwX/.^ @.}.].o.j 8 q ! Q w v { | | v +                       ",
"                              T.~.7.7.XX0X).+.y..X].F : 9 ! _ _ q % b i.i.l +                       ",
"                            . T 4X4X7XqX0X.X X.X.XE.0.D : 9 / ! w @ & ; ; % + + +                   ",
"                            . T 7XyXtXtX0X0X0XqX0X}.(.9.1 - Q Q 8 @ O                               ",
"                            o S ~.7XtXtXtXtXtXtXqX&X}.Y.V 0 q 9 - @                                 ",
"                              ; N ~.0XtXtXtXtXtXqX0XXX}.Y.o.9 7 7                                   ",
"                                # D Y.0XqXqXtX<XY U 8.8.U Z 7 7                                     ",
"                                  O V ~..XXX5XY ; ; ; + + +                                         ",
"                                      N 0.T.C a ` ` r o o O O O O                                   ",
"                                      O V D a [ *.&.X.N u r r i r                                   ",
"                                * * ;   $ u =.;.:.&.r.>X#.$.$.$.` =                                 ",
"                            X C w.Y.U * F 4.<.>.:.&.[.rX4.*.:.*.( # O +                             ",
"                            d 0..X|.9.S y.z.<.;.;.-./.,XO.[ >.x.#.u & +                             ",
"                          3 Y.XX}.V S ).5.<.;.>.;.:.X.1 * s 2.8X4X] r O                             ",
"                        X 3 ~.*XE.4 g _.l.;.;.<.-.( A t.!.U s r.[.R.C .                             ",
"                          : w.].T.4 g _.l.;.;.-.] h t.tXyX^.N ( X.W P +                             ",
"                            1 D e.f g _.l.;.;.( d ^.9XtXtX0X].Z = 2 <                               ",
"                          + . 3 V * g _.5.:.:.s 6 5XyXtXqXwXXXV o .                                 ",
"                        + + $ $ @ 2 I '.6.&.;.( d ^.4XqX6X.X~.N .                                   ",
"                      + + $ 5 2 < :X5X5.2.;.;.-.] h q.&X*XY.f * +                                   ",
"                      + + $ 6 < < E <X{.5.1.5.5.-.( A 8.9.V + O +                                   ",
"                      + + + + + + . L fX`.1.'.'.<.;.` : 1 < + + + +                                 ",
"                      + + + + + + . P 3X).*.,.5.'.<.*.3.>XE $ O + + + +                             ",
"                      + + + + + + . 6 R o.( ( 3.z.2.:.5.yX2X; . + + @ +                             ",
"                      + + + + + + + $ $ & # & p %.$.$.3.rX:X< . + + + +                             ",
"                      + + + + + + + +         e r r t k >X:X$ . + + + +                             ",
"                      + + + + + + +             O O X , R L $ $ , + + +                             ",
"                        @ + + + +                       < $ + 5 5 $ + +                             ",
"                                                              6 2 + +                               ",
"                                                              + + +                                 "
};
