/* XPM */
static char *_39df96541fb4638b7e69d711ebd8157HSCIfN7IZYX4XvKX[] = {
/* columns rows colors chars-per-pixel */
"50 50 236 2 ",
"   c None",
".  c #1D1D1E",
"X  c #13181C",
"o  c #0F1018",
"O  c #2C1C1C",
"+  c #231C1C",
"@  c #381E1C",
"#  c #28231D",
"$  c #33261E",
"%  c #372A1E",
"&  c #3A361E",
"*  c #1B1D21",
"=  c #141622",
"-  c #0D1021",
";  c #251C20",
":  c #1F2020",
">  c #222222",
",  c #2D2A21",
"<  c #2C2C2C",
"1  c #2D2420",
"2  c #312620",
"3  c #322D23",
"4  c #363125",
"5  c #3C352C",
"6  c #393728",
"7  c #373736",
"8  c #450B0B",
"9  c #4E1319",
"0  c #540D10",
"q  c #681915",
"w  c #720F0F",
"e  c #4B2C1A",
"r  c #532919",
"t  c #423B1F",
"y  c #57311C",
"u  c #6A231F",
"i  c #663418",
"p  c #743B1B",
"a  c #7D3A18",
"s  c #4D3728",
"d  c #463D33",
"f  c #4B3426",
"g  c #6A3E21",
"h  c #753226",
"j  c #5F4D1F",
"k  c #5C591E",
"l  c #48451E",
"z  c #604E1A",
"x  c #665B1C",
"c  c #765B19",
"v  c #6B651C",
"b  c #796D1B",
"n  c #76701B",
"m  c #494234",
"M  c #484439",
"N  c #5A4733",
"B  c #524E25",
"V  c #715134",
"C  c #6E6B26",
"Z  c #3C4347",
"A  c #454547",
"S  c #585247",
"D  c #4B4F51",
"F  c #4E5253",
"G  c #575B5D",
"H  c #655846",
"J  c #6B5E4A",
"K  c #72634A",
"L  c #7C715C",
"P  c #716756",
"I  c #5F6265",
"U  c #67696B",
"Y  c #78746E",
"T  c #6A6E71",
"R  c #766E6A",
"E  c #831916",
"W  c #8A331B",
"Q  c #AC281E",
"!  c #983525",
"~  c #883725",
"^  c #BA1213",
"/  c #D4231E",
"(  c #8B451C",
")  c #994717",
"_  c #A64C18",
"`  c #B24F16",
"'  c #AC501A",
"]  c #8A6913",
"[  c #866816",
"{  c #947217",
"}  c #966F15",
"|  c #A47D15",
" . c #934A26",
".. c #875738",
"X. c #814432",
"o. c #BB5B22",
"O. c #A95031",
"+. c #847F33",
"@. c #AD6439",
"#. c #C45414",
"$. c #CC5916",
"%. c #C95613",
"&. c #D35B14",
"*. c #DB5C12",
"=. c #D1570F",
"-. c #E45E10",
";. c #D3611E",
":. c #E56114",
">. c #EA6619",
",. c #F16513",
"<. c #F46917",
"1. c #FD6B15",
"2. c #FE6E19",
"3. c #F46B1B",
"4. c #FF721E",
"5. c #C76438",
"6. c #D77033",
"7. c #FE7523",
"8. c #FF7C2D",
"9. c #F47429",
"0. c #F97B31",
"q. c #ED732B",
"w. c #8F5E42",
"e. c #826A47",
"r. c #94744E",
"t. c #937851",
"y. c #9B694B",
"u. c #B96E42",
"i. c #A47450",
"p. c #8E7B6A",
"a. c #D17848",
"s. c #8E871E",
"d. c #A88618",
"f. c #B18E14",
"g. c #B2A713",
"h. c #B5AB18",
"j. c #B09120",
"k. c #C19517",
"l. c #CFAC17",
"z. c #E7BB09",
"x. c #E1AF14",
"c. c #E9BB1D",
"v. c #E6B414",
"b. c #FE843C",
"n. c #FF8035",
"m. c #D9B628",
"M. c #E6BC22",
"N. c #D7CA1A",
"B. c #DFD118",
"V. c #EFD30F",
"C. c #F9E916",
"Z. c #FFF614",
"A. c #FBE00F",
"S. c #F0C827",
"D. c #F6D935",
"F. c #EED336",
"G. c #FAE923",
"H. c #FFFA29",
"J. c #F9E935",
"K. c #FFF737",
"L. c #E9E02C",
"P. c #D2CB2D",
"I. c #938657",
"U. c #A78558",
"Y. c #B68B59",
"T. c #99876E",
"R. c #BB9763",
"E. c #B0966E",
"W. c #D9814D",
"Q. c #C8875A",
"!. c #D1925C",
"~. c #FA8846",
"^. c #FF904D",
"/. c #EC8D55",
"(. c #FE9356",
"). c #FE995E",
"_. c #F7975F",
"`. c #E1854F",
"'. c #E5BB4B",
"]. c #C39E6A",
"[. c #D79865",
"{. c #CF9877",
"}. c #F79C66",
"|. c #D5AB6B",
" X c #D6A86B",
".X c #CFA970",
"XX c #E1AB6B",
"oX c #E5B571",
"OX c #E6B975",
"+X c #EBBC75",
"@X c #E6BA7A",
"#X c #EABD7B",
"$X c #E2B779",
"%X c #F1AC6F",
"&X c #CBC744",
"*X c #F8EB44",
"=X c #FBF04A",
"-X c #F9F243",
";X c #FFFC5A",
":X c #FBF552",
">X c #EDC27C",
",X c #F4C57A",
"<X c #F6E564",
"1X c #958D88",
"2X c #9F9A98",
"3X c #99908A",
"4X c #BF9983",
"5X c #BDBC87",
"6X c #B2ACAA",
"7X c #C9AB88",
"8X c #D7B587",
"9X c #D5BA93",
"0X c #CEB692",
"qX c #E4BD85",
"wX c #FFB487",
"eX c #D1BAAD",
"rX c #DEC39C",
"tX c #F1C585",
"yX c #E5C595",
"uX c #E6C79A",
"iX c #EFD493",
"pX c #F6D48F",
"aX c #FFFD9C",
"sX c #CDC4BE",
"dX c #EBCBA8",
"fX c #F1D3A7",
"gX c #EFCCB2",
"hX c #FFFFAD",
"jX c #F7F7B4",
"kX c #DAD1CC",
"lX c #E5DBD5",
"zX c #ECD3C5",
"xX c #FDF9E8",
"cX c white",
"vX c #FFFFF1",
"bX c #FBF3D1",
/* pixels */
"                                                                                                    ",
"                                                                                                    ",
"                                                                                                    ",
"                                                                                                    ",
"                                                                                                    ",
"                                            # , 3 3 3 $ 3 ,                                         ",
"                                      * - f { f.g.g.g.g.d.c > =                                     ",
"                                    l k k [ l.D.;X;X;X=XS.d.v k k                                   ",
"                                  = v N.V.V.x.pXxXxXxXbX'.z.V.C.h.&                                 ",
"                                  X k J.H.A.x.iXcXcXcXxX'.z.Z.Z.h.3                                 ",
"                                  D L :XH.A.x.iXcXcXcXxX'.z.C.Z.l.k 6                               ",
"                                7 6XjX;XH.A.c.iXcXcXcXxX'.z.C.Z.C.B.n .                             ",
"                                < 5XaX;XH.C.D.<XhXhXhXaX<XJ.K.K.H.Z.n =                             ",
"                              , B &X;X=XG.G.*X=X=X=X=X=X-X*X=X=XK.L.s.6                             ",
"                            * n N.-X*XS.v.v.c.c.c.c.v.c.c.c.c.c.F.K.L.g.f                           ",
"                            = n K.J.m.] ] [ ] ] ] [ ] ] ] ] ] [ j.F.K.P.t -                         ",
"                            $ +.*XM.{ , < 4 4 2 2 4 6 4 1 < 4 < k k.D.&XB >                         ",
"                          & { l.m.b & > N r.U.X.u i.Y.i.h h i.t.V j j.M.f.x >                       ",
"                        * 3 [ d.{ i 9 u i.XX@XO.W [.#XXX! O.OXoXt., z { | z >                       ",
"                          > 1 1 4 w ^ / a.OXoX@.! [.#XXX! O.XX+XY.4 # $ 2 1 >                       ",
"                            * + 8 w Q 5.[.@XoX!.a.qXyXqXQ.Q.oX+XQ.u 0 9 ; *                         ",
"                            > O 8 w ~ Y.|.#X#X#XqXyXuXyXqX@X#X,X!.! w q 1                           ",
"                                O 8 h U. XqXyXqX$XOX#X@X@XqXyXqX|.U.N O                             ",
"                                  8 q  ...K L E.+XOXoXoX+X].L K J V d                               ",
"                                  8 0 q 9 $ e e..X$X#X$X.Xr.4 % @ ;                                 ",
"                                      @ a ` _ p N 7XiX0XJ g _ ` c $                                 ",
"                                      # ( *.$.i 7 .XfX8XM r =.*.) $                                 ",
"                                      5 ( &.$.p N Y.|.R.N i $.&. .2                                 ",
"                                  . Z Y 5.*.>.$.( N M N ( o.>.Q.L <                                 ",
"                                  i w.4X4Xa.4.<.$.p e i #.0._.[.i.V y                               ",
"                                2 ' 0.}.gXgX8.1.<.&.#.$.,.}.kX}.4.>.p *                             ",
"                            > * > e _ 0.gXgX8.1.2.<.,.<.1.}.lXwX6.p $ . >                           ",
"                            . 7 S S V o.9XzX~.4.2.2.2.2.1.}.lX7Xy.S S M > *                         ",
"                            > J 0XrXT.d 2XzX%X0.2.2.2.2.2.}.kXT H 7XdXE.5 .                         ",
"                          4 e.E.dXfX0XT.Y p.}.~.2.2.2.2.2.5.Y L E.uXfX9XU.H >                       ",
"                        X d ].tXuXuXdXyXJ d a.~.7.3.2.2.2.) 2 U.tXyXuXuX#Xe.>                       ",
"                        X d R.+X#XyXdXrXG e o.~.^.;.:.2.:.W 4 U.+X@XOX#XoXe.>                       ",
"                          4 J Y.+XtX7Xp...' 6.~.~.>.,.2.q.5.) ..I.oX,X Xt.N                         ",
"                            . V ]. Xr.t ` n.).b.2.2.1.7.).^.3.z N R. XU.5                           ",
"                              7 m d j _ :.7.).b.2.2.2.7.(.^.4.#.( N d d                             ",
"                                X X y %.,.8.).b.2.,.>.>.(.^.2.:.) # =                               ",
"                                  * y #.,.8.(.b.<.&.%.;./.^.2.-.) 2                                 ",
"                                  * y #.,.2.7.4.1.&.%.=.3.7.1.-.) $                                 ",
"                                  . s u./.}.}./.a.a.u.a./.}.}.a...,                                 ",
"                                  . A 1XeXlXlX6X1X1X1X2XsXlXkX6XR <                                 ",
"                                    7 F I T U G D D D F U T U G A                                   ",
"                                      : X > # > . : + . 1 > . * .                                   ",
"                                      > : < Z 7 : : # > Z 7 > > >                                   ",
"                                        > > 7 < > > : > < < > >                                     ",
"                                        > > > : : > # : > > >                                       "
};
