/* XPM */
static char *a601f285175a4de39f09f90352cd9aad0VdWM2tIBgd0M7p9[] = {
/* columns rows colors chars-per-pixel */
"50 50 255 2 ",
"   c #1B0908",
".  c #190D14",
"X  c #250B07",
"o  c #291918",
"O  c #321710",
"+  c #362D1B",
"@  c #2B1E2A",
"#  c #3B2730",
"$  c #421B09",
"%  c #503215",
"&  c #643510",
"*  c #43292A",
"=  c #593A25",
"-  c #6D3A25",
";  c #3A4428",
":  c #365426",
">  c #3A4738",
",  c #3A523A",
"<  c #4B501C",
"1  c #6B4319",
"2  c #745117",
"3  c #7A6317",
"4  c #4B4E2B",
"5  c #564638",
"6  c #475437",
"7  c #555C35",
"8  c #654329",
"9  c #784B29",
"0  c #715134",
"q  c #57652B",
"w  c #476737",
"e  c #5B6938",
"r  c #587634",
"t  c #706C31",
"y  c #697639",
"u  c #44374A",
"i  c #4B3064",
"p  c #3A4745",
"a  c #4A554A",
"s  c #505150",
"d  c #595858",
"f  c #6B5649",
"g  c #576747",
"h  c #52704E",
"j  c #566458",
"k  c #656945",
"l  c #697946",
"z  c #636859",
"x  c #677758",
"c  c #787051",
"v  c #58596F",
"b  c #64586A",
"n  c #596964",
"m  c #586971",
"M  c #656768",
"N  c #6F706C",
"B  c #6C7877",
"V  c #767776",
"C  c #AB3725",
"Z  c #FD3B2B",
"A  c #F63B34",
"S  c #865219",
"D  c #946A0C",
"F  c #A47A1C",
"G  c #8A5833",
"H  c #B04D33",
"J  c #936B32",
"K  c #AE7132",
"L  c #D04D37",
"P  c #EC4631",
"I  c #E94335",
"U  c #D46238",
"Y  c #F03C45",
"T  c #895948",
"R  c #AE5246",
"E  c #8D7451",
"W  c #A77949",
"Q  c #AF7350",
"!  c #AA5C6A",
"~  c #8B6F66",
"^  c #867874",
"/  c #D94A43",
"(  c #CF4E55",
")  c #E74B4D",
"_  c #E15C62",
"`  c #729717",
"'  c #748839",
"]  c #758F3C",
"[  c #768648",
"{  c #698950",
"}  c #778A57",
"|  c #7C9658",
" . c #748B6C",
".. c #738677",
"X. c #71A163",
"o. c #B48B1D",
"O. c #8D913B",
"+. c #B08630",
"@. c #98B130",
"#. c #CBA51E",
"$. c #D4AB34",
"%. c #E7BA38",
"&. c #869849",
"*. c #9C9C48",
"=. c #878A56",
"-. c #8F8F52",
";. c #869855",
":. c #B29151",
">. c #99AA4A",
",. c #98AF53",
"<. c #98A859",
"1. c #A5B84B",
"2. c #ABA955",
"3. c #A8B757",
"4. c #839868",
"5. c #8F8D72",
"6. c #AC8C6D",
"7. c #98AA68",
"8. c #90AA71",
"9. c #AFB16C",
"0. c #C89550",
"q. c #CFA75A",
"w. c #E4BC5B",
"e. c #C69869",
"r. c #CDB072",
"t. c #9CC44F",
"y. c #AEC753",
"u. c #B6C754",
"i. c #B8C866",
"p. c #B1CB6F",
"a. c #ECC746",
"s. c #C9CE70",
"d. c #EAD06D",
"f. c #F2E07D",
"g. c #5C5997",
"h. c #635B97",
"j. c #686A86",
"k. c #6A7485",
"l. c #777986",
"z. c #676797",
"x. c #707299",
"c. c #767A98",
"v. c #5F5CA4",
"b. c #696AA6",
"n. c #726FA8",
"m. c #6D73A5",
"M. c #7473AB",
"N. c #7778A8",
"B. c #7879B4",
"V. c #767FC1",
"C. c #8C758E",
"Z. c #A2718C",
"A. c #A8659C",
"S. c #847AAB",
"D. c #857CB7",
"F. c #CC6E82",
"G. c #71868D",
"H. c #798788",
"J. c #7687AB",
"K. c #7B84B6",
"L. c #7D85C3",
"P. c #868788",
"I. c #8D948B",
"U. c #858697",
"Y. c #969998",
"T. c #A8948F",
"R. c #98AB8D",
"E. c #A6A998",
"W. c #B3AE94",
"Q. c #8788A8",
"!. c #9799A9",
"~. c #8F8EB1",
"^. c #8588B9",
"/. c #8A93B8",
"(. c #9697B8",
"). c #A598B2",
"_. c #9AA6A8",
"`. c #9BA5B5",
"'. c #9BB3B1",
"]. c #B0B2AB",
"[. c #A7ABB9",
"{. c #A9B4B8",
"}. c #CAB68E",
"|. c #EBA293",
" X c #CAB3AE",
".X c #B7C68C",
"XX c #B1C0A1",
"oX c #CECB8E",
"OX c #EDD98F",
"+X c #F6E791",
"@X c #D2C4B3",
"#X c #EEE3AE",
"$X c #878BC2",
"%X c #938BC4",
"&X c #8A95C6",
"*X c #8B95CB",
"=X c #959BC8",
"-X c #9098D4",
";X c #9BA4C9",
":X c #94B7CE",
">X c #9AA4D5",
",X c #A7A8C9",
"<X c #ADB1C8",
"1X c #B6BAC6",
"2X c #A0A4D4",
"3X c #A3A8D5",
"4X c #AAB2D7",
"5X c #B7B8D9",
"6X c #A8B6E5",
"7X c #B6BBE5",
"8X c #C4BFD9",
"9X c #B8C6C6",
"0X c #BAC6D9",
"qX c #9FC6FF",
"wX c #B8C3E9",
"eX c #A4C6FD",
"rX c #A8C7F9",
"tX c #A9C6FD",
"yX c #ADCBFE",
"uX c #B9CBF7",
"iX c #B2CDFD",
"pX c #BAD2F6",
"aX c #B8D5F4",
"sX c #B4D1FC",
"dX c #BBD3FD",
"fX c #CBCFD5",
"gX c #F0F0D6",
"hX c #C7CAE9",
"jX c #D4C9EF",
"kX c #CAD3EA",
"lX c #D6D8E9",
"zX c #C7CCF6",
"xX c #C4D4F4",
"cX c #C4D4FC",
"vX c #C9D6F9",
"bX c #CBDCFC",
"nX c #D5DAF7",
"mX c #D2DDFC",
"MX c #E4D8F0",
"NX c #D4E3EF",
"BX c #D4E3FE",
"VX c #DBE7FA",
"CX c #DBE4FD",
"ZX c #EBEEEB",
"AX c #E6E7F4",
"SX c #EBEDF4",
"DX c #E2E6FC",
"FX c #E4EBFC",
"GX c #EBECFD",
"HX c #EBF3F8",
"JX c #ECF3FD",
"KX c #F4F6F4",
"LX c #F2F4FD",
"PX c #F5FAFC",
"IX c #FBFDFD",
/* pixels */
"uXrXtXtXtXiXmXDXnXnXDXcXiXtXtXtXtXuXmXcXtXtXyXeXtXeXtXtXeXsXFXPXIXLXiXeXeXeXtXeXeXeXeXeXeXqXqXeXeXqX",
"rXuXiXtXtXtXtXiXiXyXiXiXtXyXyXyXiXtXyXeXyXyXtXyXyXyXtXiXsXVXAXJXGXAXCXiXeXtXeXtXtXtXeXrXeXeXeXeXqXeX",
"tXyXuXuXiXrXiXiXiXiXiXtXuXuXBXbXbXsXsXyXyXyXiXyXyXyXsXyXuXnXFXGXGXGXDXdXiXtXyXtXeXyXtXrXeXrXeXeXeXtX",
"mXzXuXuXpXuXiXiXbXGXLXKXLXPXKXSXGXFXsXsXsXyXsXrXiXyXiXVXGXAXAXDXGXGXnXjXcXiXyXyXyXyXyXyXyXyXyXyXyXyX",
"DXnXmXjXVXzXnXmXMXGXFXGXGXGXGXGXAXnXxXzXuXsXsX$XK.b.rXsXsXdXcXcXvXdXdXdXuXdXcXdXsXsXsXsXyXyXyXsXyXyX",
"LXJX(.b.4XCXzXvXBXmXnXCXGXAXGXFXVXCXmXVXmXcXuX=XK.n.6XaXuXiXuXsXsXsXiXdXdXdXiXsXsXyXyXsXsXsXsXsXsXsX",
"GXLXM.n.D.B.3XzXbXcXdXwX^.>XkXkXCXhXzXxXxXdXcX-XM.M.K.dXdXdXdXdXsXdXdXsXdXdXsXsXdXsXdXdXsXsXsXsXsXsX",
"GXCXn.M.B.B.M.BXcXvXvXuXN.D.7XCXnX^.B.%X/./.GX(.K.b.N.wXcXcXbXbXbXcXdXcXcXwX6XpXdXdXdXbXVXJXxXaXdXcX",
"3XvXn.n.B.D.V.mXcXdXcXbXM.^.2XzXnX^.^.%XD.%X(.`.M.b.b.=X3XbXbXxXbXbXbXaXpX4X*XBXNXVXDXLXLXHXGXJXFXCX",
",XhXB.n.M.D.D.zXzXxXcXcXN./.(.vXMX^.$X%XD.%X^.,XM.x.x.=X4XNXBXbXBXBXNXJ.^.6X*XbXmXbXBXuXnXmXmXBXBXNX",
"%X4X=XB.n.L.$XxXbXxXcXcXS.~.Y zX|.%X^.%XS.%XN.<XK.( / ~.,XVXbX*XHXVXHX=XL.>X-XBXBXBX0X-XmXBXCXBXBXVX",
"/.^.wXn.z.^.%XwXnXxX=XJ.n.^.(  XjXV.%XA.N.%XN.(.R C.R S.:XNX).B.L.VXGX>XL.>X*XBXVXCXkX>X>XCXVX6XCXCX",
"$X^.wXb.z.$X%X=Xc.;X5XS.S.S.A ).A _ D.A 6.:.} J./ m.! Z.F.P Y K.! P ) :XV.>X*XCXCXnX,X-X3XDXDX>XFXVX",
"*XK.;XM.n.D.^.%Xc.N.B.c.x.c.f A.).A ( 9.P 7.7.X.Q ) z.Y C.A.) / ( _ @X:XB.>X-XvXBX6X=X*X>XVXbX;XCX>X",
"J.x.J.z.x.D.B.=XD.z.z.N.n.( h.! Z.Z.A Q 0.U { K Q r.5.N Z A.) N.( J.H 7XL.-X*X>XwXzX>X*X$X>XpX>XBX*X",
"z j j M n j j x k.j.z.N.l.5.=.7.4.U.X.' [ r ] p.8.h m v C.S.D.B.K.J.zX7XK.-X-X>XwX4X-X*XV.*X=X*X6X=X",
"n p G.{.{.m a j n j j x x [ <.*.l l X.} | [ t.r | h g d B l. .G.J.L.mXaXK.-XL.J.aXJ.=XL.L.K.$X:X=X6X",
"p a '.9X,X!.Y.p a h { l >.| } y g ' y.[ y.u.3.[ k } [ j { } h } { ..'.xXc.B G.k. .{ G.G.G.R.R.I.4.X.",
"p h fX0XNX9X9X..| &.l | w I d A 6 ,.7.7.1.e A e / g P k x [ k h A a z E  .N H.I.R.{ { k...X.B R.}  .",
"{  .'.'.'.fX_.9Xl &.e e L J G 8 s <.*.,.*.O.e A 0 Y e = G k h I R 7 k I X./ { R.X.X.G.m .X . . .n ..",
"a _.'.'.H.1X'.E.5.e g w A q A L < P P e q U L H - w ) C H C 6.) g / / g h W ;.8.| X. .X.8.4.4.| x .X",
", ..1X<X_.1X].].@Xj : a - H w H P K &.{ 7 Z 0 A K _ k A N _ |.].A a L 0 H a {  . .x n ..8... .X.8.7.",
"p k.k.`.H._._.R.U.N g < 9 H 4 :.K :.K q w I > ) y., / t R.|.|.H L H S a T p a ;.h j G...I.m I.x 7.| ",
", > m B k.l.H.Y.T.Y.k e 6 ; ; *.' r *.q 4 t 4 &.e w s E.fX'.G.> , a p w j j | <.7..XXXR.x m 7.x y { ",
"; ; d b m j.l.V P.U.V 6 4 # < ' y ' ,.' <.3.< y ` 7  X].{.{.a a s g g k } ;.&.=.i.u.u.i.i.9.s.oX.X.X",
"; + V V V s N J.{.].E.=.| [ 7.e &.>.q y >.' l 4 O.c ].[...4 p # m d M 8.7.3.3.3.3.&.c E =.[ E 9.6.3.",
"+ ; n s d 5.V C.V P.Y.E.e e ;.g ;.q 4 7 7 q 6 ; =.].fX..; ; a 4.<.=.9.] 9.3.y.3.u.s.9.Y.P.H.l.5.-.6.",
", , M b f ^ V P.^ T.b ].R.y q [ <.=.<.q q < ; q W.fX7 4 ; 4 s 7.1.3.u.-.3.*.=.8.5.!.=X~./././.J.G.I.",
"[ [ l =.d ^ ^ P.V ^ C.^ !.^ E s.+X+X+X+X+X+XOXf 9X7 < 4 ; l [ <.>.3.>.<.N v c.<X0X<X;X=X/.;X;X/.J.!.",
">.>.1.4 =.^ 5.5.5.5.I.I.P.5.d.OXw.q.q.0.K e.r.}.r.7.x e &.>.1.3.3.>.3.2.IX!.G.;X7X3X;X;X&X:X=X&XJ./.",
"1.1.1.t 1.i.=.5.5.W.9.r.OX+Xd.w.q.W 6.G K }.fXT E r.y.y.: ;.gX>.<.2.&.ZXIXE.Y.=X4X;X;X;X/.;X>X*XK./.",
">.>.1.u.u.3.u.s.s.oXOXOXOXd.f.d.q.S G = ^ T.6.E f 6.oXgX<.ZXHXE.<.<.KXPXPXc 5._.(.CXHX&X&X>X>X&XL.&X",
"3.O.*.:.:.2.r.r.OX+XOXOX}.T = T.0.w.% O ~ 6.1 G % T IXHXHXvXwX7Xj KXHXPXKX2.2.IXGXGXPX*X$X=X*XK.^.&X",
"k s f z s b k 2.oXT.6.! e.0.e.E % K K 0 ~ ! 9 G G :.SXCXJX7X7X0XgXkXKXIX-.5.jXJXAXPX;X&X$X*X=X&XK.^.",
"k.M B m B j.V C.d i v u * * G W s 9 J 1 G & J K J r.mXwXzX7X7XhXnXJXPXlXlXkXSXAXLXwX^.$XK.L.L.J.K.K.",
"l.V l.j.j.x.T.s V # ^ o o @ # 9 G X 1 G G S & S e.!.wX>X7X4XhX/.hXKXSXkXkXCXGXPXkXK.^./.!.JXJXK.K.K.",
"c.G.H.c.N.x.#XOXe.0.T o # X .   & % G W 9 S W % }.wX<X<X,X[.<X[.VXJX[.hXmXDXPX5Xm.GXMXNX:XK.K.K.B.K.",
"N.N.N.N.N. XOX|.0.:.K J 0   o . = S - K G = f E f U.I.r.d.d.W.<XvXQ.5XjXMXLX!.1XSX`.`.FXVXhX~.J.N.K.",
"m.m.K.K.N.U.b d T 0 J 9 8 8   X O J % J - 8 - = % 5 d.a.a.#.a.%.r.3X5XGX<X(.lXPXSXkXx.b.m.Q.0XFXJXJX",
"J.M.N.N.N.b i # . o O 5 1 9 9 X O E W }.= ^ <Xb E f %.%.a.a.a.+.$.2.fX1X<XAXlX!.PXJXLXNXhXhXkXnXFXFX",
"{.M.m.m.z.s i u # #   .   = S T 8 2 OX XX ~ ~ % W a.$.#.#.o.#.D 0.o.E I.fXJXjXhXlXJXIXIXIXPXGXlXkXz.",
"k.M.n.B.M.|.W G = o . + X o 9 K 0 r.hXT.# 6.% E $.w.o.+.D D +.D o.F =.3XlXPXIXIXPXFXnXvX7XM.M.7.b.(.",
"b.c.b.B.M.s f G 9 - - o   + $ 1 }.KXGX0 X 6.M c o.F o.S F +.+.2 D 3 ^ (.fXHXIXIXPXIXIXPXIXIXLXZXY.z.",
"n.4.b.b.b.b # .   X % - G 1 t r.ZXAXMX< X Q fXjX=.3 J 3 0 3 1 2 k M ~.5XIXIXIXIXIXIXIXIXIXIXIXIXLXKX",
"m.E.z.x.M.j.#         + 1 1 oXfXjXvXE.& 5 W.AXLXSXIXfXE.c k P.d z 5XLXIXKXIXZXN d fXIXIXLXLXGXFX4X3X",
"4.m H.g.v.b.d o X X 8 % J 9.lXzXhXLX XO }. XIXPXPXSXLX8XZX~.PXPXE.^ V C.fXLXIXIXIXIXY.j.l.U.(.%X!..X",
"P.b.p.b.v.5.m # O + 2 J }.wXK.0XGXMXO f MXKXIXPXlXPX5XU.fXlXIXIXIXP.5.H.U.l.[.SXSXIXIXIX{.c.Q.U.Q.!.",
"l.k.i.v.R.V b.j.< 1 E !.b.v.z.FXjX8X@ f gXIXSXAXlX5XU.~.<XSX).IXIXIXB S.U.U.D.W.{.DXAXIXZXKXi.8.H.!.",
"x.] >...&.v.v.g.h.N M m g.b.j.z.j j.X W.fXlXlX,XC.(.~.~.,XLXQ.IXIXIX).U.Q.C.^.%X5.].1XzXBXGX.Xy.@.@.",
"..` y.O.j.x.J.v.v.v s.h.z.v.x.g..Xc N (.IXLX,X~.(.,X=X(.,X<X!.jXKXIXlXN Q.Q.U.^.^.8.[ s.XX{.9.i.y.@."
};
