/* XPM */
static char *d14f8c37d08d4684d9fa156e8b5fd877qBOgB5bFq83bMHEC[] = {
/* columns rows colors chars-per-pixel */
"50 50 148 2 ",
"   c None",
".  c #0B2917",
"X  c #0D2F1A",
"o  c #152A1F",
"O  c #0E341C",
"+  c #0F381E",
"@  c #10341E",
"#  c #10381F",
"$  c #162C21",
"%  c #143421",
"&  c #183625",
"*  c #133B22",
"=  c #1E352B",
"-  c #1E3B2C",
";  c #24312F",
":  c #203C2F",
">  c #2B2E35",
",  c #273734",
"<  c #293535",
"1  c #233E32",
"2  c #283835",
"3  c #2C3F3A",
"4  c #134325",
"5  c #134A27",
"6  c #164428",
"7  c #1A472C",
"8  c #154D29",
"9  c #194A2C",
"0  c #16532C",
"q  c #18562F",
"w  c #1F4730",
"e  c #1F4C32",
"r  c #1C5432",
"t  c #1B5B33",
"y  c #224433",
"u  c #224B35",
"i  c #284639",
"p  c #274C3A",
"a  c #294C3B",
"s  c #215336",
"d  c #205A37",
"f  c #245438",
"g  c #29533E",
"h  c #255B3C",
"j  c #295B3F",
"k  c #1B6536",
"l  c #1C6937",
"z  c #1F6539",
"x  c #1D6B39",
"c  c #1E743C",
"v  c #1E7B3D",
"b  c #23623C",
"n  c #226B3D",
"m  c #20753F",
"M  c #207A3F",
"N  c #2B5740",
"B  c #2C5C42",
"V  c #2B6443",
"C  c #266C40",
"Z  c #257642",
"A  c #2B7047",
"S  c #227C42",
"D  c #297A45",
"F  c #2A7A49",
"G  c #228443",
"H  c #238A45",
"J  c #258748",
"K  c #29844A",
"L  c #268C4A",
"P  c #298C4C",
"I  c #249146",
"U  c #26944A",
"Y  c #28954E",
"T  c #269B4C",
"R  c #289D4E",
"E  c #289B4E",
"W  c #299750",
"Q  c #299950",
"!  c #299A50",
"~  c #299B50",
"^  c #299C50",
"/  c #2A9C51",
"(  c #27A34E",
")  c #27A54E",
"_  c #27A74F",
"`  c #27A54D",
"'  c #29A24E",
"]  c #28A34F",
"[  c #28A64F",
"{  c #28A54F",
"}  c #28AA4F",
"|  c #29A151",
" . c #2AA152",
".. c #29A751",
"X. c #2AA650",
"o. c #2AA452",
"O. c #2AA653",
"+. c #2AA753",
"@. c #2CA653",
"#. c #2BA654",
"$. c #2AA352",
"%. c #2AA953",
"&. c #29AB52",
"*. c #29AE52",
"=. c #2AAB54",
"-. c #2BAA55",
";. c #2BAB55",
":. c #2CAA54",
">. c #2AAC54",
",. c #2AAE55",
"<. c #2BAF56",
"1. c #2CAE56",
"2. c #2CAF56",
"3. c #2AAC54",
"4. c #2AB154",
"5. c #2BB055",
"6. c #2AB254",
"7. c #2BB255",
"8. c #2CB257",
"9. c #2CB357",
"0. c #2AB454",
"q. c #2BB756",
"w. c #2CB457",
"e. c #2CB557",
"r. c #2BB256",
"t. c #2CBB57",
"y. c #2CBD57",
"u. c #2BBA57",
"i. c #2CB458",
"p. c #2CB558",
"a. c #2CB658",
"s. c #2CB558",
"d. c #2CB858",
"f. c #2DB858",
"g. c #2CB958",
"h. c #2DB958",
"j. c #2DB959",
"k. c #2DBB59",
"l. c #2CBC58",
"z. c #2DBD59",
"x. c #2CBF58",
"c. c #2DBF59",
"v. c #2DBC59",
"b. c #2CC259",
"n. c #2DC05A",
"m. c #2DC55A",
"M. c #2DC45A",
"N. c #2ECB5C",
/* pixels */
"                                                                                                    ",
"                                                                                                    ",
"                                                                                                    ",
"                                                                                                    ",
"                                                                                                    ",
"                                                                                                    ",
"                                                                                                    ",
"                                                                                                    ",
"                                                                                                    ",
"                                                                                                    ",
"                                                                                                    ",
"                                                                                                    ",
"                                    a 1 ; & : : i a N a y : = = = : a                               ",
"                                B N g y : : - : y a N g u 1 - - - y a g B                           ",
"                              B B N h s s u w y p b V V g s u e s h h j B g                         ",
"                            z b b b n Z M n d d b D P K Z b n m Z Z C b h e -                       ",
"                          l k k b n G T ( H m l M U :.@.Y K P R ..R G x t w & $                     ",
"                        k k l k x M U 0.b.` G x G ' t.t.:. .@.e.v.4.T M k 7 * $ $                   ",
"                      x x k x c m H ' b.m._ G x M T 6.t.p.9.p.k.k.,.Q G x r - % %                   ",
"                    k l x k x c G U 3.n.b._ G c M L ' 3.p.z.k.9.=. .Q L S k 8 4 *                   ",
"                  k k k k k l c K Y :.k.z...H c S L ~ -.k.z.t.%./ Y W W H x 0 4 *                   ",
"                  t q q q q k l M L R :.,...U I U / ..2.9.e.%.Y H H / #.E c 0 + O                   ",
"                  0 0 8 8 8 0 t x m J Y ..%.%.*.4.0.k.p.2.#.Y G M G T 6.` v 8 O .                   ",
"                  5 5 5 8 8 0 q l m G U / ,.t.m.N.N.m.k.2./ U S c G ` q.*.v 8 + O                   ",
"                  r 8 q k l c v G H U R -.p.b.N.N.N.N.b.e.%.R L H I ..9...G k 0 0                   ",
"              B N t t k v I ( ` ` } ,.9.k.b.m.N.N.N.N.N.z.k.0.4.} #.-.O.| H S m x x x               ",
"            B B B k k c I 6.b.m.b.m.m.N.m.N.N.N.N.N.N.N.N.N.m.m.M.k.,.#.Q W U J S x l k             ",
"            B B B B z M I 6.b.m.N.N.N.N.N.N.N.N.N.N.N.N.N.N.N.N.N.m.j.-.O./ / Y S x t t             ",
"            B B B z z M H / 8.z.N.N.N.N.N.N.N.N.N.N.N.N.N.N.N.N.N.N.n.z.i.-. .P Z k 0 8             ",
"            B B B h z x S W $.8.b.m.N.N.N.N.N.N.N.N.N.N.N.N.N.N.N.N.N.M.k.i. .L c q 5 4             ",
"              B N t r k Z L / :.p.z.N.N.N.N.N.N.N.N.N.N.N.N.N.b.z.z.n.z.k.,. .L Z t 9 7             ",
"                s 7 5 q x H ~ #.-.8.k.m.N.N.N.N.N.N.N.N.N.N.b.k.,.-.,.,.-.#. .P Z h d u             ",
"                  & % 5 k G Q / ~ $.2.z.N.N.N.N.N.N.N.N.N.m.z.i.$./ / / ~ ~ W P F V B N             ",
"                    X 4 k S L L L U ..k.m.m.y.u.u.b.N.N.m.b.k.2.$./ W L L K K F A V B               ",
"                      7 k M S S S J R y.m.u.` T ` t.m.m.z.8.i.i.9.%.E G S C V B B B                 ",
"                        k x x x x v U 0.b.*.L v I *.b.b.,.$.#.i.l.9.U S b u i i 3                   ",
"                          t h t k m H ` *.T M x S T 4.*.R Y ~ %.9.` H l q 7 < >                     ",
"                          u u d t x M H I G c x c G I I G G G I I G l 0 6 - ;                       ",
"                        2 2 3 u t z c c c c x l x c c c c c c c v x 0 4 + @                         ",
"                          > 2 u t k l l l k k x l l k l k z k x k t 5 + O                           ",
"                            < i d k k k k k k k k k t k k k k k t q 6 O                             ",
"                                                                                                    ",
"                                                                                                    ",
"                                                                                                    ",
"                                                                                                    ",
"                                                                                                    ",
"                                                                                                    ",
"                                                                                                    ",
"                                                                                                    ",
"                                                                                                    "
};
