/* XPM */
static char *result[] = {
/* columns rows colors chars-per-pixel */
"50 50 143 2 ",
"   c #6D2735",
".  c #65273A",
"X  c #63363B",
"o  c #743C3F",
"O  c #7B294C",
"+  c #6B3B41",
"@  c #763B42",
"#  c #7B3B45",
"$  c #734541",
"%  c #734B43",
"&  c #7B4942",
"*  c #77444A",
"=  c #7A434B",
"-  c #764D4B",
";  c #75524A",
":  c #7E4751",
">  c #5E7843",
",  c #607A46",
"<  c #6C7E49",
"1  c #A01C1B",
"2  c #B2151E",
"3  c #AC1924",
"4  c #9D2F35",
"5  c #A22B28",
"6  c #AD3434",
"7  c #AA3C3C",
"8  c #B13534",
"9  c #D6231D",
"0  c #D02620",
"q  c #D82625",
"w  c #DE2F29",
"e  c #D1363D",
"r  c #D63E38",
"t  c #E52A23",
"y  c #E5332B",
"u  c #F03128",
"i  c #ED3E35",
"p  c #F43C32",
"a  c #FA473E",
"s  c #812A4C",
"d  c #823C43",
"f  c #834D57",
"g  c #815A56",
"h  c #88535D",
"j  c #805858",
"k  c #BC4D56",
"l  c #BC4D59",
"z  c #9C5665",
"x  c #9C5866",
"c  c #A25C6B",
"v  c #9A6065",
"b  c #AC6777",
"n  c #CD575E",
"m  c #FA4C44",
"M  c #F7574D",
"N  c #FB554A",
"B  c #FD6057",
"V  c #CF5E6B",
"C  c #D4646B",
"Z  c #D76E75",
"A  c #DB6D74",
"S  c #D56B7C",
"D  c #DC7075",
"F  c #FB7A60",
"G  c #E27476",
"H  c #E6757B",
"J  c #5D8245",
"K  c #608647",
"L  c #638947",
"P  c #6C8549",
"I  c #658A49",
"U  c #6B8C4B",
"Y  c #76814F",
"T  c #71884B",
"R  c #6E924D",
"E  c #71954E",
"W  c #74994F",
"Q  c #769C50",
"!  c #789E50",
"~  c #7CA351",
"^  c #80A753",
"/  c #87B055",
"(  c #DB7385",
")  c #DD7E81",
"_  c #E97787",
"`  c #EB7D84",
"'  c #E97C8D",
"]  c #E78588",
"[  c #EC838A",
"{  c #E4888D",
"}  c #F38990",
"|  c #F48E9E",
" . c #D18EA2",
".. c #D496AB",
"X. c #D19FB2",
"o. c #F28DA4",
"O. c #F592A3",
"+. c #F794AA",
"@. c #F997A8",
"#. c #F799AC",
"$. c #F89AAE",
"%. c #FA9DB2",
"&. c #D3A1B3",
"*. c #D7A8B8",
"=. c #E7A3AB",
"-. c #E4AEB7",
";. c #E2A9B9",
":. c #F6A5B6",
">. c #F8A3B6",
",. c #E4BABD",
"<. c #D7B6C6",
"1. c #D9BDCA",
"2. c #E6AAC0",
"3. c #EEADC0",
"4. c #E7BBC4",
"5. c #F3B8C8",
"6. c #F7BEC8",
"7. c #EFBFD0",
"8. c #EBC2CB",
"9. c #EEC3D1",
"0. c #E6CAD6",
"q. c #E9CED3",
"w. c #ECCFD9",
"e. c #F5C7D5",
"r. c #F8CFD8",
"t. c #EDD2DC",
"y. c #EBD9DD",
"u. c #F1D5DF",
"i. c #F9D0D9",
"p. c #F7DADD",
"a. c #FADBDF",
"s. c #FED0E0",
"d. c #F1DBE2",
"f. c #F8DDE2",
"g. c #EEE0E0",
"h. c #EBE3EA",
"j. c #F1E6E7",
"k. c #FDE5EE",
"l. c #FDE8EF",
"z. c #FEECF3",
"x. c #FEF2F6",
"c. c #FEF6F9",
"v. c #FFFCFD",
/* pixels */
"R R R R R R R R R R R R R R R R R R R R R R R R R R R R R R R R R R R U R R R R R R R R R R R R R R ",
"R R R R R R R R R R R R R R R R R R R R R R R R R R R R R R R R R R I J J U R R R R R R R R R R R R ",
"R R R R R R R R R R R R R R R R R R R R R R R R R R R R R R R R R U I J J I R R R R R R R R R R R R ",
"R R R R R R R R R R R R R R R R R R R R R R R R R R R R R R R R I J J J J J I R R R R R R R R R R R ",
"R R R R R R R R R R R R R R R R R R R R R R R R R R R R R R R R I I J J J J I R R R R R R R R R R R ",
"R R R R R R R R R R R R R R R R R R R R R R R R R R R R R R R R R U I J J R R R R R R R R R R R R R ",
"R R R R R R R R R R R R R R R R R R R R R R R R R R R R R R R R R R R L R R R R R R R R R R R R R R ",
"R R R R R R R R R R R R R R R R R R R R R R R R R R R R R R R R R R R R R R R R R R R R R R R R R R ",
"R R R R R R R R R R R R R R R R R R R R R R R R R R E R R R R R R R R R R R R R R R R R R R R R R R ",
"R R R R R R R R R R R R R R R R R R R R R R R R R R Q Q Q R R R R R R R R R R R R R R R R R R R R R ",
"R R R R R R R R R R R R R R R R R R R R R R R R R E Q ^ ~ E R R R R R R R R R R R R R R R R R R R R ",
"R R R R R R R R R R R R R R R R R R R R R R R R R E ~ ^ ^ ~ E R R R R R R R R R R R R R R R R R R R ",
"R R R R R R R R W W R R R R R R R R R R R R R R R R ~ / / ^ Q R E W W E R R R R R R R R R R R R R R ",
"R R R R R R R E ! ~ W R R R R R R R R R R R R R R R ~ ~ / ~ E R W ~ ~ E R R R R R R R R R R R R R R ",
"R R R R R R R Q ~ ^ Q R R R R R R R R R R R R R R R W ~ ~ ~ R U ~ / ~ W R R R R R R R R R R R R R R ",
"R R R R R R R E ~ ^ Q E E E R R R R R R R R R R R R R W ~ W I R ~ ~ ~ E R R R R R R R R R R R R R R ",
"R R R R R R E E ~ ^ Q Q ! W R R R R R R R R R R R R R R I U W ~ ~ E I R R R R R R R R R R R R R R R ",
"R R R R R R R E ~ ^ Q ! ^ Q E R R R R R R R R R R R E U J J R W E I J R R R R R R R R R R R R R R R ",
"R R R R R R R E ~ ~ Q Q ^ ! R R R R R R R R R R R R R U R L J J J I U R R R R R R R R R R R R R R R ",
"R R R R R R R E Q Q W ! ^ ~ E R R R R R R R R R R R R R R R J J J U R R R R R R R R R R R R R R R R ",
"R R R R R R R R E E E W ~ W E R R R R R R R R R R R R R R R R R U R R R R R R R R R R R R R R R R R ",
"R R R R R R R R R R E E W W R R R R R R R R R U P I I R R R R R R R R R R R R R R R R R R R R R R R ",
"R R R R R R R R R R R R R R R R R R R U P U < X . . X < U I J R R R R R R R R R R R R R R R R R R R ",
"R R R R R R R R R R R R R R R R R U P ; * +   3 e e 3   o * ; U R R R R R R R R R R R R R R R R R R ",
"R R U E R R R R R R R R R R R R P - f &.<.O 2 i B N i 3 O 1.&.g P R R R R R R R R R R R R R R R R R ",
"W E E R R R R R R R R R R R R P ; X.y.v.h.s q a M F N w 4 j.c.X.- U R R R R R R R R R R R R R R R E ",
"~ Q E R R R R R R R R R R R U ; <.v.v.z.w.7 9 u p N m y 5 g.v.t.: P R R R R R R R R R R R R R R E E ",
"~ Q E E R R R R R R R R R R P * w.v.z.x.x.,.8 0 t t y r 7 d.z.7.x T R R R R R R R R R R R R R R R E ",
"E E R R R R R R R R R R R R U - *.x.c.x.k.k.q.=.6 1 1 7 -.k.v.u.c T R R R R R R R R R R R R R R R E ",
"R R R R R R R R R R R R R R U < h w.c.k.x.v.v.v.y.q.4.8.v.v.v.d.c T R R R R R R R R R R R R R R R E ",
"R R R R R R R R R R R R R R R U : 2.f.z.c.c.v.v.v.z.v.v.v.v.v.u.x T R R R R R R R R R R R R R R R R ",
"R R R R R R R R R R R R R R R P z 5.s.e.p.z.z.k.c.v.v.v.c.k.v.d.c Y R R R R R R R R R R R R R R R R ",
"R R R R R R R R R R R R R R R T v 2.e.D ) 6.i.l.c.c.v.c.z.c.v.d.c T E R R R R R R R R R R R R R R R ",
"R R R R R R R R R R R R R R R U Y b e.:.$.} { 6.f.z.z.k.c.v.v.t.x T R R R R R R R R R R R R R R R R ",
"R R R R R R R R R R R R R R U L < x 9.:.$.+.#.] { 5.r.l.x.c.v.0.: P R R R R R R R R R R R R R R R R ",
"R R R R R R R R R R R R R U K J , x 3.D H O.%.o.O.] { 6.a.p.a.;.= P R R R R R R R R R R R R R R R R ",
"R R R R R R R R R R R R U L J J > - ..>.o.H ` @.%.%.%.[ [ G H Z # U R R R R R R R R R R R R R R R R ",
"R R E R R R R R R R R R R J J J J > j  .A [ @.H [ o.>.%.+.%.+.S @ P R R R R R R R R R R R R R R R R ",
"R R R R R R R R R R R R R U I J J U P - d l A ' O.H [ O.o.$.| V @ U R R R R R R E E R R R R R R R R ",
"R R R R R R R R R R R R R R U I I U R P < $ d k A O.@.H ` ` H ( # P R R R R R E Q Q E R R R R R R R ",
"R R R R R R R R R R R R R R R R U E R R R U < $ # n A | O.@._ l $ U R R E E E Q ~ ~ E U E R R R R R ",
"R R R R R R R R R R R R R R R R R R R R R R U U < $ d k n C k & P R R R ! ! Q ! ^ ~ E E R R R R R R ",
"R R R R R R R R R R R R R R R R R R R R R R R R U U < % o @ % P E R R R ~ ~ Q ! ^ ~ E U R R R R R R ",
"R R R R R R R R R R R R R R R R R R R R R R R R R R U U U U U R R R R E ~ ^ ! ! ~ ! E R R R R R R R ",
"R R R R R R R R R R R R R R R R R R R R R R R R R R R R R R R R R R R E ! ^ ! E Q Q E R R R R R R R ",
"R R R R R R R R R R R R R R R R R R R R R R R R R R R R R R R R R R R R ! ~ Q R U R R R R R R R R R ",
"R R R R R R R R R R R R R R R R R R R R R R R R R R R R R R R R R R R R E Q E R R R R R R R R R R R ",
"R R R R R R R R R R R R R R R R R R R E W W E R R R R R R R R R R R R R R R R R R R R R R R R R R R ",
"R R R R R R R R R R R R R R R R R R R Q ~ Q E R R R R R R R R R R R R R R R R R R R R R R R R R R R ",
"R R R R R R R R R R R R R R R R R R Q ~ ~ ~ Q Q R R R R R R R R R R R R R R R R R R R R R R R R R R "
};
