/* XPM */
static char *_a3bc3e4d3f5417e95caa882214c8ac40BJdb0eRk64nTZn6[] = {
/* columns rows colors chars-per-pixel */
"50 50 54 1 ",
"  c #5A8043",
". c #5B8045",
"X c #5D8245",
"o c #5D8345",
"O c #5D8246",
"+ c #608546",
"@ c #618547",
"# c #608746",
"$ c #638947",
"% c #618748",
"& c #628648",
"* c #648848",
"= c #658A49",
"- c #678B4A",
"; c #658C48",
": c #668C49",
"> c #698D4B",
", c #698F4A",
"< c #6B8F4B",
"1 c #6B8F4C",
"2 c #6A904B",
"3 c #6C934A",
"4 c #6E954B",
"5 c #6F974B",
"6 c #6B904C",
"7 c #6D914C",
"8 c #6E914D",
"9 c #6E924D",
"0 c #6F934E",
"q c #6F944D",
"w c #70944D",
"e c #72974F",
"r c #73974F",
"t c #70984C",
"y c #73984E",
"u c #74994F",
"i c #759B4F",
"p c #779D4F",
"a c #759B50",
"s c #769B50",
"d c #779C50",
"f c #779D50",
"g c #799F50",
"h c #79A050",
"j c #7AA051",
"k c #7CA251",
"l c #7DA452",
"z c #7FA753",
"x c #80A753",
"c c #80A853",
"v c #82AA53",
"b c #83AC54",
"n c #85AD54",
"m c #87B055",
/* pixels */
"9999999999999999999999999999999999,>99ww10w10w110w",
"9999999999999999999999999999999999,X%>1ww1w01w0w01",
"999999999999999999999999999999991>@.X=>11w1010w0ww",
"99999999999999999999999999999999,o.@XX=w001ww01110",
"999999999999999999999999999999999=XX.@>9ww10w10ww0",
"9999999999999999999999999999999991=.@,7901w0w01w11",
"9999999999999999999999999999999999<=>,99ww1111000w",
"999999999999999999999999999999999999<w99100w0ww101",
"9999999999999999999999999999y9999999999999999999ww",
"9999999999999999999999997eage999999999999999999910",
"9999999999999999999999997eplje997w77999999999999w0",
"99999999999999999999999999gnzje97e7799999999999911",
"9999999eey999999999999999yjnmca9eeee9999999999990w",
"9999999egki99999999999996qpbmze9ekky99999999999901",
"9999999elci799999999999999ylcj,,kbxe999999999999ww",
"9999999elliee9999999999999qypy;qccpe99999999999910",
"9999997elcayjy99999999999996::ylx5:299999999999999",
"9999999ellgjzhq999999999999>%o3y9=@299999999999999",
"9999999ekligzjq99999999999992:o X%>999999999999999",
"9999997eiayhzj999999999999999:$oX,9999999999999999",
"99999999e9eylaq99999999999999966>99999999999999999",
"99999999999eyy999999999999999999999999999999999999",
"99999999999999999999999999999999999999999999999999",
"99999999999999999999999999999999999999999999999999",
"99779999999999999999999999999999999999999999999999",
"iee9999999999999999999999999999999999999999999999w",
"jpe9999999999999999999999999999999999999999999999e",
"lg9999999999999999999999999999999999999999999999we",
"ee99999999999999999999999999999999999999999999999e",
"<9999999999999999999999999999999999999999999999999",
"w9999999999999999999999999999999999999999999999999",
"99999999999999999999999999999999999999999999999999",
"999999999999999w9999999999999999999999999999999999",
"999999999999999<w199999999999999999999999999999999",
"9999999999991w,@%ww9999999999999999999999999999999",
"9999999999999,@.O=19999999999999999999999999999999",
"9999999999991%.@XX=>1ww099999999999999999999999999",
"9999999999991%XXXX>9001199999999999999999999999999",
"9999999999w91,@XX>>0w10w999999999999999w0w99999999",
"99999999991www<*-1w1w01w999999999999999rgaw9999999",
"1ww0w001999999110w110w101ww0w0019999ererkkr1ww1099",
"001111ww999999ww1w0w01w0001111ww999eagagxkw0101w99",
"w10w0w109999ww1w10w0ww11w10w0w109999gxsgxlr1010w99",
"w01w01w0999911w1w011100ww01w01w0991rkcgskge1ww0199",
"110w0w111ww0w0w110www001110w0w119999gxgeaa01110w99",
"0w011w0w0011w1w0w01011ww0w011w0w999wgks08www0w0199",
"w0w110w0w10w1w10w1010r10w0w110w09999err11w10w0w199",
"11w0w011w01w001w01wwarw011w0w0119999990w01w011w099",
"0w0w110w0w110w0w100slgrw0w110w0w999999999999999999",
"011w0w011w0w011ww0sggkga1w0w011w999999999999999999"
};
