/* XPM */
static char *_57479ab1f464e1ec9302684d27d4407mAskFBWrVaNrE7hb[] = {
/* columns rows colors chars-per-pixel */
"50 50 103 2 ",
"   c None",
".  c #567C42",
"X  c #597E43",
"o  c #597F44",
"O  c #5A7F44",
"+  c #5B8044",
"@  c #5C8145",
"#  c #5C8245",
"$  c #5D8245",
"%  c #5D8345",
"&  c #5E8346",
"*  c #5F8446",
"=  c #608547",
"-  c #618746",
";  c #618647",
":  c #638A47",
">  c #628748",
",  c #638748",
"<  c #638848",
"1  c #648848",
"2  c #648949",
"3  c #658949",
"4  c #648A48",
"5  c #658A49",
"6  c #668A49",
"7  c #668B49",
"8  c #668B4A",
"9  c #668C49",
"0  c #678C4A",
"q  c #688C4A",
"w  c #688D4A",
"e  c #698D4B",
"r  c #698E4B",
"t  c #6A8E4B",
"y  c #6A8F4B",
"u  c #6B8F4B",
"i  c #6B8F4C",
"p  c #699049",
"a  c #6B914B",
"s  c #6B924A",
"d  c #6E964B",
"f  c #6C904C",
"g  c #6D914C",
"h  c #6D914D",
"j  c #6E914D",
"k  c #6E924D",
"l  c #6F924D",
"z  c #6E934D",
"x  c #6F934D",
"c  c #6F944D",
"v  c #6F974C",
"b  c #70944D",
"n  c #70944E",
"m  c #70954E",
"M  c #71954E",
"N  c #71964E",
"B  c #72964E",
"V  c #72974E",
"C  c #739B4D",
"Z  c #73984F",
"A  c #74994F",
"S  c #749A4F",
"D  c #759A4F",
"F  c #759B4F",
"G  c #769B4F",
"H  c #779F4F",
"J  c #769B50",
"K  c #769C50",
"L  c #779C50",
"P  c #779D50",
"I  c #789E50",
"U  c #799F50",
"Y  c #799F51",
"T  c #79A051",
"R  c #7AA150",
"E  c #7AA051",
"W  c #7AA151",
"Q  c #7BA151",
"!  c #7BA251",
"~  c #7CA251",
"^  c #7CA351",
"/  c #7DA352",
"(  c #7DA651",
")  c #7DA452",
"_  c #7EA552",
"`  c #7EA652",
"'  c #7FA652",
"]  c #7FA753",
"[  c #80A753",
"{  c #80A853",
"}  c #81A853",
"|  c #81A953",
" . c #82A953",
".. c #81AA53",
"X. c #82AA53",
"o. c #83AB53",
"O. c #82AA54",
"+. c #82AB54",
"@. c #83AB54",
"#. c #83AC54",
"$. c #84AC54",
"%. c #88B155",
"&. c #88B255",
/* pixels */
"                                                                                                    ",
"                                                                                                    ",
"k k k k k k k k k k k k k k k k k k k k k k k k k k k k k k k k i t i k n k k k k k k k k k k k     ",
"k k k k k k k k k k k k k k k k k k k k k k k k k k k k k k k k 5 $ 1 k k k k k k k k k k k k k     ",
"k k k k k k k k k k k k k k k k k k k k k k k k k k k k k k k 5 $ O $ 5 u k k k k k k k k k k k     ",
"k k k k k k k k k k k k k k k k k k k k k k k k k k k k k k i $ O > $ O t n k k k k k k k k k k     ",
"k k k k k k k k k k k k k k k k k k k k k k k k k k k k k k k 5 = O $ 5 i k k k k k k k k k k k     ",
"k k k k k k k k k k k k k k k k k k k k k k k k k k k k k k k k 5 $ 5 k k k k k k k k k k k k k     ",
"k k k k k k k k k k k k k k k k k k k k k k k k k k k k k k k k k t u k k k k k k k k k k k k k     ",
"k k k k k k k k k k k k k k k k k k k k k k k k k k k k k k k k k n k k k k k k k k k k k k k k     ",
"k k k k k k k k k k k k k k k k k k k k k k k k c b Z k k k k k k k k k k k k k k k k k k k k k     ",
"k k k k k k k k k k k k k k k k k k k k k k k i Z _ T b k k k k k k k k k k k k k k k k k k k k     ",
"k k k k k k k k k k k k k k k k k k k k k k k k S { @.Y b k k k k k k k k k k k k k k k k k k k     ",
"k k k k k k k b b c k k k k k k k k k k k k k k S { &.@.L k k b b n k k k k k k k k k k k k k k     ",
"k k k k k k k S _ L k k k k k k k k k k k k k k S { &.#.J k b / T b k k k k k k k k k k k k k k     ",
"k k k k k k k L @.T k k k k k k k k k k k k k n b T @.{ a 0 Y #.@.b k k k k k k k k k k k k k k     ",
"k k k k k k k S { Y b b n k k k k k k k k k k k k n H H : a ] o.T b k k k k k k k k k k k k k k     ",
"k k k k k k k Y { Y Z / L n k k k k k k k k k k k k 0 5 d _ { d : k k k k k k k k k k k k k k k     ",
"k k k k k k k S $.T S { T b k k k k k k k k k k k k > $ a C v : $ i k k k k k k k k k k k k k k     ",
"k k k k k k k H [ U H { T b k k k k k k k k k k k k k 5 # . . : k k k k k k k k k k k k k k k k     ",
"k k k k k k k b S b S o.T b k k k k k k k k k k k k k a : = = t c k k k k k k k k k k k k k k k     ",
"k k k k k k k k n l S / L c k k k k k k k k k k k k k k k k l l k k k k k k k k k k k k k k k k     ",
"k k k k k k k k k k l b b k k k k k k k k k k k k k k k k k l l k k k k k k k k k k k k k k k k     ",
"k k k k k k k k k k k k k k k k k k k k k k k k k k k k k a l l k k k k k k k k k k k k k k k k     ",
"k k l l l k k k k k k k k k k k k k k k k k k k k k k k k k k k k k k k k k k k k k k k k k k k     ",
"n k l l a k k k k k k k k k k k k k k k k k k k k k k k k k k k k k k k k k k k k k k k k k k b     ",
"Y S n l k k k k k k k k k k k k k k k k k k k k k k k k k k k k k k k k k k k k k k k k k k b T     ",
"{ U n l k k k k k k k k k k k k k k k k k k k k k k k k k k k k k k k k k k k k k k k k k k Z _     ",
"H b k k k k k k k k k k k k k k k k k k k k k k k k k k k k k k k k k k k k k k k k k k k k b J     ",
"k k k k k k k k k k k k k k k k k k k k k k k k k k k k k k k k k k k k k k k k k k k k k k k k     ",
"k k k k k k k k k k k k k k k k k k k k k k k k k k k k k k k k k k k k k k k k k k k k k k k k     ",
"k k k k k k k k k k k k k k k k k k k k k k k k k k k k k k k k k k k k k k k k k k k k k k k k     ",
"k k k k k k k k k k k k k k k k k k k k k k k k k k k k k k k k k k k k k k k k k k k k k k k k     ",
"k k k k k k k k k k k k k k t k k k k k k k k k k k k k k k k k k k k k k k k k k k k k k k k k     ",
"k k k k k k k k k k k k n t = > k k k k k k k k k k k k k k k k k k k k k k k k k k k k k k k k     ",
"k k k k k k k k k k k k t > O $ 5 f k k k k k k k k k k k k k k k k k k k k k k k k k k k k k k     ",
"k k k k k k k k k k k l = X = = O 5 k k k k k k k k k k k k k k k k k k k k k k k k k k k k k k     ",
"k k k k k k k k k k k k 5 $ $ $ $ i k k k k k k k k k k k k k k k k k k k k k k k k k k k k k k     ",
"k k k k k k k k k k k k k 5 O $ i k k k k k k k k k k k k k k k k k k k k b J k k k k k k k k k     ",
"k k k k k k k k k k k k k l t t k k k k k k k k k k k k k k k k k k k k k L T J k k k k k k k k     ",
"k k k k k k k k k k k k k k k k k k k k k k k k k k k k k k k k l n S S Z T { Z k k k k k k k k     ",
"k k k k k k k k k k k k k k k k k k k k k k k k k k k k k k k k l b ~ [ S / { J f k k k k k k k     ",
"k k k k k k k k k k k k k k k k k k k k k k k k k k k k k k k k l k / [ S T @.J k k k k k k k k     ",
"k k k k k k k k k k k k k k k k k k k k k k k k k k k k k k k k k k [ { S S T N k k k k k k k k     ",
"k k k k k k k k k k k k k k k k k k k k k k k k k k k k k k k k k c / _ J k k k k k k k k k k k     ",
"k k k k k k k k k k k k k k k k k k k k k k k k k k k k k k k k k k S S n f k k k k k k k k k k     ",
"k k k k k k k k k k k k k k k k k k b J b k k k k k k k k k k k k k k k k k k k k k k k k k k k     ",
"k k k k k k k k k k k k k k k k k c L _ L b k k k k k k k k k k k k k k k k k k k k k k k k k k     ",
"k k k k k k k k k k k k k k k k n U / T / U c k k k k k k k k k k k k k k k k k k k k k k k k k     ",
"k k k k k k k k k k k k k k k i b _ _ S / _ b k k c k k k k k k k k k k k k k k k k k k k k k k     "
};
