/* XPM */
static char *cd933e791cf844029960c59fe44c12bbq2MYlOMGGqLoiVHW[] = {
/* columns rows colors chars-per-pixel */
"50 50 198 2 ",
"   c None",
".  c #358D34",
"X  c #338E3B",
"o  c #368D2E",
"O  c #2F8E4E",
"+  c #318E43",
"@  c #308E4C",
"#  c #2E8E55",
"$  c #2C8E5C",
"%  c #2E9056",
"&  c #2D905A",
"*  c #2A8E65",
"=  c #298F6E",
"-  c #278D6D",
";  c #299164",
":  c #2A926D",
">  c #268E75",
",  c #288F70",
"<  c #258F7C",
"1  c #2C9275",
"2  c #5ED55C",
"3  c #67DE41",
"4  c #6BDF45",
"5  c #6ADD4B",
"6  c #63D757",
"7  c #65D953",
"8  c #61D65B",
"9  c #6BDC50",
"0  c #72DE54",
"q  c #6EE143",
"w  c #70E242",
"e  c #55CE6C",
"r  c #57D064",
"t  c #5DD363",
"y  c #4DC877",
"u  c #4CC77B",
"i  c #4FC97A",
"p  c #4BC777",
"a  c #52CA74",
"s  c #68D763",
"d  c #6ED962",
"f  c #62D561",
"g  c #73DB62",
"h  c #76D96B",
"j  c #84DB79",
"k  c #1D8E8C",
"l  c #1E908C",
"z  c #1E8F9C",
"x  c #1C8D96",
"c  c #1D9493",
"v  c #228F8C",
"b  c #258F80",
"n  c #239383",
"m  c #2E958C",
"M  c #218F94",
"N  c #208F99",
"B  c #2E9894",
"V  c #2A949B",
"C  c #3DBC93",
"Z  c #39B79D",
"A  c #3AB99A",
"S  c #35B898",
"D  c #1D8FA3",
"F  c #1A8FAB",
"G  c #198FB6",
"H  c #178FBD",
"J  c #1997B2",
"K  c #1B98B4",
"L  c #1992BC",
"P  c #1A99BE",
"I  c #1F97A6",
"U  c #2B9AB9",
"Y  c #389EB0",
"T  c #2EAEAE",
"R  c #3DA0AA",
"E  c #2EB1A7",
"W  c #33B4A4",
"Q  c #31B2AA",
"!  c #3CB8A0",
"~  c #2CADB2",
"^  c #26AABB",
"/  c #27A6BC",
"(  c #35B0B6",
")  c #41BE90",
"_  c #45B6B5",
"`  c #5FBEBB",
"'  c #49C482",
"]  c #45C189",
"[  c #48C385",
"{  c #54C787",
"}  c #4AC092",
"|  c #59C39E",
" . c #66CE86",
".. c #79D38B",
"X. c #76D289",
"o. c #77CF9B",
"O. c #6AC2BD",
"+. c #7ECABA",
"@. c #76C7BA",
"#. c #71C9A7",
"$. c #158FC1",
"%. c #148FCC",
"&. c #1790C2",
"*. c #1A91C3",
"=. c #199AC4",
"-. c #1591CE",
";. c #1B93CF",
":. c #1B9CCB",
">. c #128FD2",
",. c #0D95D4",
"<. c #0F96DB",
"1. c #0E9ADA",
"2. c #1393D2",
"3. c #1C95D3",
"4. c #1499D6",
"5. c #1C9CD5",
"6. c #1194DA",
"7. c #149BD9",
"8. c #1B9EDA",
"9. c #2698CE",
"0. c #2497D2",
"q. c #239AD4",
"w. c #2C9CD5",
"e. c #269EDC",
"r. c #379FD7",
"t. c #1DA2CD",
"y. c #1FA3C3",
"u. c #1FA0DB",
"i. c #1DA1D1",
"p. c #21A5C4",
"a. c #26A6CB",
"s. c #23A1DB",
"d. c #2BA3DC",
"f. c #29A2D5",
"g. c #34A3D7",
"h. c #33A6DB",
"j. c #3CA5DB",
"k. c #37A8DC",
"l. c #3CA9DC",
"z. c #3DA3D5",
"x. c #1C9EE1",
"c. c #219FE1",
"v. c #2BA4E1",
"b. c #27A1E0",
"n. c #3CA9E1",
"m. c #37A9E1",
"M. c #47A9C9",
"N. c #44B1C8",
"B. c #42ABDC",
"V. c #4BAEDD",
"C. c #42A7D9",
"Z. c #54AEDC",
"A. c #50A9D3",
"S. c #4EB0DE",
"D. c #53B1DD",
"F. c #5BB3DE",
"G. c #5CB5D3",
"H. c #58B9C6",
"J. c #63B6DE",
"K. c #65B8DE",
"L. c #6CBADD",
"P. c #6BB8D8",
"I. c #74BDDE",
"U. c #7ABFDE",
"Y. c #43ABE2",
"T. c #4CAEE1",
"R. c #50AFE2",
"E. c #52B0E1",
"W. c #5AB4E3",
"Q. c #62B6E2",
"!. c #6AB8E3",
"~. c #69B5E1",
"^. c #77BCE4",
"/. c #7DC6C7",
"(. c #7BC4CB",
"). c #7DC0DE",
"_. c #7AC2D2",
"`. c #7EC0E0",
"'. c #83D68C",
"]. c #89D989",
"[. c #90D799",
"{. c #89D0AE",
"}. c #88CDBC",
"|. c #98D3B9",
" X c #83C2DF",
".X c #89C4DF",
"XX c #93C7DF",
"oX c #95CAD8",
"OX c #86C3E1",
"+X c #8CC5E1",
"@X c #91C7E0",
"#X c #9BCAE0",
"$X c #96C8E0",
"%X c #A1CCE1",
"&X c #A2CCE1",
"*X c #AACFE1",
"=X c #AFD1E1",
"-X c #B1D2E2",
/* pixels */
"                                                                                                    ",
"                                                                                                    ",
"                                                                                                    ",
"                                                                                                    ",
"                                                                                                    ",
"                                                                                                    ",
"                                                                                                    ",
"                                                      X X X + X + X X X                             ",
"                                                      @ @ @ @ @ @ @ @ @ O                           ",
"                                                    $ = , , , , , , , , ,                           ",
"                                    X X X X . . X O 1 v N D N N N N N N z                           ",
"                                  + + @ + + + + + & b D *.&.&.&.&.&.$.&.*.                          ",
"                                & ; ; ; ; ; ; $ * , M G %.>.>.2.;.>.>.%.L                           ",
"                      . . . . O , l c c c c c l k x F H 2.>.>.;.>.>.>.$.z 1 + o o X                 ",
"                    + + X X + % < I P =.=.=.P L G L $.%.%.>.-.-.>.2.%.H x * + X X + +               ",
"                    # # # # # : B / d.d.d.h.f.w.w.9.9.;.2.%.>.;.2.3.0.U V 1 & % % % &               ",
"                  $ , < < < < m _ _ ~.W.W.W.W.W.Z.V.g.q.2.,.,.2.5.f.z.M.Y V n n n n n               ",
"              . @ * v D F F D U M.P.OX+X+XOXOXOX XI.Z.w.7.,.<.2.f.B.F.G.M.U K K K K K               ",
"              @ & > N &.%.%.%.9.A.U.XX%X%X%X&X*X&XXXL.C.s.8.8.s.k.D.L.F.D.h.5.4.5.5.i.              ",
"              = > v F %.>.>.;.0.z.~.^.+X#X%X*X-X-X&XOXK.S.l.l.l.S.F.`.).D.d.7.x.v.m.n.              ",
"              x D F &.%.2.>.%.2.9.z.S.K.)..X#X*X-X*X#X@X).I.J.F.K.).`.K.S.v.u.d.Y.W.W.              ",
"              *.*.*.%.%.-.-.-.2.3.0.d.B.J.).+X$X%X*X&XoXXX.X X).).).).).S.d.u.k.D.L.).              ",
"            C.r.w.w.0.2.-.-.2.2.6.6.8.d.V.F.I.).OXOX X.X.X+X.X@X+X@X+X).K.S.B.V.F.Q.!.              ",
"          ^.L.F.V.j.w.3.4.,.2.4.6.,.7.s.d.B.S.S.D.F.F.F.K.I..X#X%X%X#X@X X).L.F.S.Y.Y.              ",
"         X).U.I.K.D.h.5.7.7.7.4.7.7.7.8.s.s.d.s.d.d.d.d.k.F.).$X*X*X&X&X%X#X.XP.S.h.s.              ",
"      /./.(._.I.K.E.h.5.7.u.s.s.u.8.7.7.7.7.4.4.7.7.1.1.u.l.K.+XoX&X&X%X%X#X.XP.N.a.y.              ",
"      o.o.#.O.G.S.m.b.u.s.d.l.B.h.s.7.4.,.4.4.4.1.1.1.1.u.d.S.F.^..X@X@XOX^.P.H._ A S               ",
"      h h  .| _ d.x.x.7.d.V.F.F.B.d.7.4.2.2.2.4.7.7.1.7.7.u.d.l.D.K.`.`.!.R.B._ } a e               ",
"        7 t ] ( t.4.7.i.d.V.K.K.S.d.7.4.2.-.2.2.7.7.7.7.7.i.1.u.h.F.I.I.W.v.a.Q u 8 5               ",
"        3 2 p C E ^ t.u.s.Y.D.D.B.f.2.2.-.-.-.2.2.2.7.7.7.1.1.1.h.D.L.L.R.d.i.E i 7 w               ",
"            r y ' Z ^ 8.x.v.h.h.f.5.2.-.-.-.-.-.2.3.4.7.u.7.1.u.d.D.I.I.R.d.t.E i 7 w               ",
"              7 t ' Q t.7.8.e.5.5.3.-.-.-.-.-.-.-.2.4.7.1.1.1.7.d.D.L.!.R.v.t.Q i 6 5               ",
"              q 7 a C ~ p.t.i.1.6.-.%.%.%.-.-.%.-.-.2.3.7.4.4.5.f.B.F.F.n.b.t.Q p 6 q               ",
"                  t i ] Z ^ i.<.<.2.%.%.%.-.-.%.%.-.-.2.3.2.6.2.q.g.l.l.v.x.u.Q u 6 q               ",
"                    6 t u W t.7.6.2.-.%.-.-.-.-.-.-.-.-.2.-.%.>.5.q.e.8.x.u.t.Q i 6 q               ",
"                    q 9 e ) ~ y.:.;.-.2.-.-.-.-.-.-.-.-.-.%.%.;.2.2.7.7.u.t.^ A i 6 5               ",
"                      q t i ] W ~ :.4.6.>.,.6.,.2.2.2.%.%.%.%.%.2.6.<.4.p.Q A [ a 6                 ",
"                          t e u A p.4.6.<.4.4.7.4.4.2.%.%.%.%.%.>.6.6.t.Q ] a t 8                   ",
"                          q 9 t ] T t.u.5.s.s.u.5.e.5.0.2.-.-.>.-.4.:.^ ) e 7 9                     ",
"                            q 8 i ) W ( z.V.T.Y.m.m.g.j.r.w.0.3.:./ ~ C i 2 q q                     ",
"                                r a { | O._.^.!.W.F.W.F.E.C.e.8.y.W ] a t 7 5 q                     ",
"                                  7 s X.{.oXXX+X).U.U.I.I.Z.k.a.^ C e 6 5 5 5 5                     ",
"                                  q 0 j [.|.|.}.}.+.+.+.@.` N.( W u 8 q w 5 5 5                     ",
"                                      h j ].].....X.....X. .{ [ ' e 6                               ",
"                                        0 g g g 0 d d d s s f t t 2                                 ",
"                                        9 5 5 5 9 9 5 5 5 5 5 5 5                                   ",
"                                            4 3 3 4 3 3 4 q q q                                     ",
"                                                                                                    ",
"                                                                                                    ",
"                                                                                                    "
};
