/* XPM */
static char *result[] = {
/* columns rows colors chars-per-pixel */
"50 50 115 2 ",
"   c black",
".  c #737E68",
"X  c #737C6B",
"o  c #737A6D",
"O  c #73796E",
"+  c #747771",
"@  c #747574",
"#  c gray46",
"$  c #747870",
"%  c #5B8044",
"&  c #5B8045",
"*  c #5C8144",
"=  c #5C8145",
"-  c #5D8245",
";  c #5D8345",
":  c #5D8246",
">  c #5E8346",
",  c #5F8446",
"<  c #608547",
"1  c #618547",
"2  c #618647",
"3  c #628648",
"4  c #628748",
"5  c #638748",
"6  c #638848",
"7  c #648848",
"8  c #648948",
"9  c #648849",
"0  c #648949",
"q  c #658A49",
"w  c #668A49",
"e  c #668B4A",
"r  c #678B4A",
"t  c #678C4A",
"y  c #688C4A",
"u  c #698D4B",
"i  c #698F4B",
"p  c #6A8E4B",
"a  c #6A8F4B",
"s  c #6B8F4B",
"d  c #6B8F4C",
"f  c #6B904C",
"g  c #6C904C",
"h  c #6D914C",
"j  c #6C904D",
"k  c #6D914D",
"l  c #6E914D",
"z  c #6D924C",
"x  c #6D924D",
"c  c #6E924D",
"v  c #6F924D",
"b  c #6E934D",
"n  c #6F934D",
"m  c #6F934E",
"M  c #6F944D",
"N  c #6F944E",
"B  c #70944D",
"V  c #70954D",
"C  c #70944E",
"Z  c #70954E",
"A  c #71954E",
"S  c #71964E",
"D  c #72974E",
"F  c #73974E",
"G  c #72974F",
"H  c #73974F",
"J  c #73984E",
"K  c #73984F",
"L  c #73994F",
"P  c #74994F",
"I  c #759A4F",
"U  c #759B4F",
"Y  c #769B4F",
"T  c #769C4F",
"R  c #6F8E53",
"E  c #708B56",
"W  c #70885B",
"Q  c #728A5B",
"!  c #759B50",
"~  c #769B50",
"^  c #769C50",
"/  c #779C50",
"(  c #779D50",
")  c #789D50",
"_  c #789E50",
"`  c #789F50",
"'  c #799F50",
"]  c #79A051",
"[  c #7AA051",
"{  c #7AA151",
"}  c #7BA151",
"|  c #7BA251",
" . c #7CA251",
".. c #7CA351",
"X. c #7CA252",
"o. c #7CA352",
"O. c #7DA451",
"+. c #7CA452",
"@. c #7DA452",
"#. c #7EA552",
"$. c #7FA652",
"%. c #7FA752",
"&. c #728363",
"*. c #758763",
"=. c #728264",
"-. c #748069",
";. c #979627",
":. c #BFBE2E",
">. c #80A752",
",. c #80A753",
"<. c #80A853",
"1. c #FFFD45",
"2. c #4DA9CA",
"3. c #5FC7EC",
"4. c white",
/* pixels */
"c c c c c c c c c c c c c c c c c c c c c c c c c c     c c c c c c g i d k c c c c c c c c c c c v ",
"c c c c c c c c c c c c c c c c c c c c c c c c c   2.2.  c c c c x t , 5 g c c c c c c c c c c c c ",
"c c c c c c c c c c c c c c c c c c c c c c c c   2.3.3.2.  c c h e < * - 7 p c c c c c c c c c c c ",
"c c c c c c c c c c c c c c c c c c c c c c c c   3.3.3.3.2.  c p , & < - = w k n c c c c c c c c c ",
"c c c c c c c c c c c c c         c c c c c c c   3.3.3.3.3.  c g 8 > - : 1 y k c c c c c c c c c c ",
"c c c c c c c c c c c c   2.2.2.2.  c c c c c c   3.3.3.3.3.  c c f 0 = < u k c c c c c c c c c c c ",
"c c c c c c c c c c c   2.3.3.3.3.2.  c c c c c   3.3.3.3.3.  c c c s q y k c c c c c c c c c c c c ",
"c c c c c c c c c c c   3.3.3.3.3.3.2.  c c c c   3.3.3.3.3.  c c c c z k c c c c c c c c c c c c c ",
"c c c c c c c c c c c   3.3.3.3.3.3.3.2.          3.3.3.3.3.  c c c c n c c c c c c c c c c c c c c ",
"c c c c c c c c c c c c   2.3.3.3.3.3.3.2.  1.1.1.  2.3.3.2.  c c c c c c c c c c c c c c c c c c c ",
"c c c c c c c c c c c c c   2.3.3.3.3.3.3.2.        2.2.3.2.    c c c c c c c c c c c c c c c c c c ",
"c c c c c c c c c c b c c     2.2.3.3.3.3.3.2.        2.2.2.  1.    v c c c c c c c c c c c c c c c ",
"c c c c c c c B J P Z c   1.1.    2.2.2.3.3.3.  1.1.1.  2.              c c c c c c c c c c c c c c ",
"c c c c c c c S [ X.L c     1.        2.2.2.2.2.                          c c c c c c c c c c c c c ",
"c c c c c c c H @.%.U c   ;.      1.1.    2.2.2.          1.1.1.1.1.1.1.  c c c c c c c c c c c c c ",
"c c c c c c c G +.$.U V   1.    1.1.1.1.          1.1.1.1.1.          1.1.  c c c c c c c c c c c c ",
"c c c c c c c G +.$.^ !   1.        1.        1.1.1.1.      ;.;.;.;.;.      c c c c c c c c c c c c ",
"c c c c c c c H @.$.( `   :.    ;.;.        1.1.1.1.  ;.;.;.1.1.1.  1.;.;.  c c c c c c c c c c c c ",
"c c c c c c c D  .@.^ '   ;.    1.1.        1.1.1.  ;.1.1.1.1.1.1.    1.1.  c c c c c c c c c c c c ",
"c c c c c c c C I Y J '   ;.    :.1.    ;.;.      ;.1.1.  1.1.1.  1.1.1.1.  c c c c c c c c c c c c ",
"c c c c c c c c n n Z / O.      :.:.    1.1.;.  ;.1.1.1.    1.1.1.    1.1.  c c c c c c c c c c c c ",
"c c c c c c c c c c n S P       ;.:.    1.1.1.  1.1.1.  1.1.1.1.  4.  :.:.  c c c c c c c c c c c c ",
"c c c c c c c c c c c c   b     ;.;.    :.1.1.  1.1.1.1.    1.1.  4.  :.;.  c c c c c c c c c c c c ",
"c c c c c c c c c c c c c c c     ;.    :.:.1.  1.1.1.  4.  1.1.    :.:.  c c c c c c c c c c c c c ",
"c c c c c c c c c c c c c c c   c       ;.:.:.  1.1.1.  4.  1.:.:.:.:.  c c c c c c c c c c c c c c ",
"P S n c c c c c c c c c c c   c c c     ;.;.;.  :.:.:.    :.:.:.:.    c c c c c c c c c c c c c c B ",
"@.) B c c c c c c c c c c c c c c c c       ;.  ;.:.:.:.:.:.:.    c c   c c c c c c c c c c c c n F ",
"@.( B c c c c c c c c c c c c c c c   c c c       ;.;.;.;.    c c c   c c c c c c c c c c c c c n K ",
"J S b c c c c c c c c c c c c c c c c c c c c   c         c c c c c c c c c c c c c c c c c c c c N ",
"l c c c c c c c c c c c c c c c c c c c c c   c c c c c c   c c c c c c c c c c c c c c c c c c c c ",
"c c c c c c c c c c c c c c c c c c c c c c c c c c c c   c c c c c c c c c c c c c c c c c c c c c ",
"c c c c c c c c c c c c c c c c c c c c c c c c c c c c c c c c c c c c c c c c c c c c c c c c c c ",
"c c c c c c c c c c c c c c c v c c c c c c c c c c c c c c c c c c c c c c c c c c c c c c c c c c ",
"c c c c c c c c c c c c c c c g h c c c c c c c c c c c c c c c c c c c c c c c c c c c c c c c c c ",
"c c c c c c c c c c c c c c p 3 9 j n c c c c c c c c c c c c c c c c c c c c c c c c c c c c c c c ",
"c c c c c c c c c c c c k u 4 & : w g c c c c c c c c c c c c c c c c c c c c c c c c c c c c c c c ",
"c c c c c c c c c c c c s 2 % , > = w h c c c c c c c c c c c c c c c c c c c c c c c c c c c c c c ",
"c c c c c c c c c c c c d 4 - > - ; r k c c c c c c c c c c c c c c c c c c c c l c c c c c c c c c ",
"c c c c c c c c c c c c k a 7 * > r g c c c c c c c c c c c c c c c c c c c c n C B b c c c c c c c ",
"c c c c c c c c c c c c c c p 6 q k c c c c c c c c c c c c c c c c c c c c c J ) U C c c c c c c c ",
"c c c c c c c c c c c c c c l g g c R W &.. o + @ @ + o . &.W R c c c c S D Z T #.} A k c c c c c c ",
"c c c c c c c c c c c c c c c v E =.$ # # # # # # # # # # # # $ =.E c n ( { I ) >. .A k c c c c c c ",
"c c c c c c c c c c c c c c c W O # # # # # # # # # # # # # # # # O W C { >.( _ >. .A k c c c c c c ",
"c c c c c c c c c c c c c c c X # # # # # # # # # # # # # # # # # # X C } <.) / @.[ A k c c c c c c ",
"c c c c c c c c c c c c c c c X # # # # # # # # # # # # # # # # # # X C { ,.) K ~ P M c c c c c c c ",
"c c c c c c c c c c c c c c c W O # # # # # # # # # # # # # # # # O W m ) ..! M v n c c c c c c c c ",
"c c c c c c c c c c c c c c c c E =.$ # # # # # # # # # # # # $ =.E c n D L A c k c c c c c c c c c ",
"c c c c c c c c c c c c c c c c c c R Q *.-.o + @ @ + o . &.W R c c c c c c c c c c c c c c c c c c ",
"c c c c c c c c c c c c c c c c c c B ! o.] D n c c c c c c c c c c c c c c c c c c c c c c c c c c ",
"c c c c c c c c c c c c c c c c c C ^ { { | ' K n c c c c c c c c c c c c c c c c c c c c c c c c c "
};
