/* XPM */
static char *d779ccc2dbd74a56d7389d64cffed3bdWUCSNr7KNCBbd9n8[] = {
/* columns rows colors chars-per-pixel */
"50 50 220 2 ",
"   c None",
".  c #1C1D1E",
"X  c #14191D",
"o  c #291C1C",
"O  c #361719",
"+  c #2C231F",
"@  c #3A291F",
"#  c #37261C",
"$  c #1B1D21",
"%  c #141621",
"&  c #241D20",
"*  c #1E2021",
"=  c #222222",
"-  c #2D2B24",
";  c #2A2827",
":  c #332D22",
">  c #352E29",
",  c #323125",
"<  c #3A332C",
"1  c #36362B",
"2  c #343334",
"3  c #393B3C",
"4  c #252D32",
"5  c #490809",
"6  c #510C0B",
"7  c #461418",
"8  c #5C1111",
"9  c #660C0C",
"0  c #731616",
"q  c #4C281E",
"w  c #463B1C",
"e  c #59321B",
"r  c #67371B",
"t  c #763B19",
"y  c #6B231D",
"u  c #473A2C",
"i  c #533522",
"p  c #5E3720",
"a  c #433C31",
"s  c #432D21",
"d  c #693D26",
"f  c #702B23",
"g  c #4E421C",
"h  c #55471C",
"j  c #634F1B",
"k  c #6A541A",
"l  c #735E1A",
"z  c #7C611B",
"x  c #706A1E",
"c  c #57572C",
"v  c #494238",
"b  c #544435",
"n  c #5C4B3A",
"m  c #68442B",
"M  c #75482B",
"N  c #684836",
"B  c #724A34",
"V  c #665534",
"C  c #765939",
"Z  c #787736",
"A  c #7A772C",
"S  c #434242",
"D  c #494A46",
"F  c #534D43",
"G  c #5C5447",
"H  c #4E5153",
"J  c #515354",
"K  c #6C5B41",
"L  c #725F43",
"P  c #7B6545",
"I  c #7C6E59",
"U  c #7F7772",
"Y  c #6E6F6F",
"T  c #9E1212",
"R  c #880F10",
"E  c #BF1414",
"W  c #9B3626",
"Q  c #C81817",
"!  c #9A4717",
"~  c #8C4F19",
"^  c #AC4E17",
"/  c #A44D19",
"(  c #B65218",
")  c #B34C11",
"_  c #8A6914",
"`  c #886A18",
"'  c #9D7715",
"]  c #A07C15",
"[  c #834A26",
"{  c #925A39",
"}  c #894E34",
"|  c #BC5D25",
" . c #A54830",
".. c #886C25",
"X. c #B36437",
"o. c #B7602D",
"O. c #C85817",
"+. c #D45A13",
"@. c #DD5E14",
"#. c #D15D19",
"$. c #DF5B0D",
"%. c #EC6414",
"&. c #EB6819",
"*. c #FA6B15",
"=. c #F76916",
"-. c #FD711B",
";. c #C25D23",
":. c #D87236",
">. c #D16B2B",
",. c #E66D24",
"<. c #FC7927",
"1. c #FE7F34",
"2. c #EA7C3B",
"3. c #886A47",
"4. c #89724C",
"5. c #95754B",
"6. c #9B7E52",
"7. c #837358",
"8. c #A96C48",
"9. c #A8754F",
"0. c #887962",
"q. c #867B75",
"w. c #A77C63",
"e. c #C37C52",
"r. c #E57E41",
"t. c #86801C",
"y. c #BB9914",
"u. c #B58D14",
"i. c #B3AA1C",
"p. c #B2A715",
"a. c #B2AE38",
"s. c #939335",
"d. c #CC9A12",
"f. c #C39312",
"g. c #D09E12",
"h. c #C9A715",
"j. c #EABA12",
"k. c #E7B915",
"l. c #FD833A",
"z. c #E2AF20",
"x. c #F2D20D",
"c. c #F5CA17",
"v. c #ECD517",
"b. c #F6D512",
"n. c #F7D513",
"m. c #EBC911",
"M. c #FCE613",
"N. c #FFEE15",
"B. c #F9E51A",
"V. c #FFF215",
"C. c #FFF21C",
"Z. c #FFF81F",
"A. c #FFF222",
"S. c #FFF82E",
"D. c #FEF536",
"F. c #FFF939",
"G. c #AD8B59",
"H. c #A88756",
"J. c #B7935F",
"K. c #B5B546",
"L. c #AEAD43",
"P. c #8F8067",
"I. c #A88767",
"U. c #B9876A",
"Y. c #BD9862",
"T. c #A59276",
"R. c #B89B7F",
"E. c #BAA27C",
"W. c #C98553",
"Q. c #FD8A47",
"!. c #E78B55",
"~. c #F7945B",
"^. c #C89967",
"/. c #CB8E69",
"(. c #EB9866",
"). c #CBA266",
"_. c #D7AA6B",
"`. c #DBB66D",
"'. c #E2AC6B",
"]. c #E7B36D",
"[. c #FAA572",
"{. c #EABC7B",
"}. c #E6B876",
"|. c #D4D24A",
" X c #F6EC41",
".X c #FFFA43",
"XX c #FFFB4B",
"oX c #F8F448",
"OX c #FBFA53",
"+X c #EFC179",
"@X c #F2C66E",
"#X c #FFFE65",
"$X c #FFFD79",
"%X c #9C9896",
"&X c #8E8885",
"*X c #BBA583",
"=X c #BCBD91",
"-X c #A1A1A2",
";X c #D7BA97",
":X c #CEAF8B",
">X c #E7BE80",
",X c #FDB68A",
"<X c #DEC39A",
"1X c #EAC58C",
"2X c #E8C28A",
"3X c #E6C99D",
"4X c #E7C798",
"5X c #FFFA88",
"6X c #FFFE90",
"7X c #DCC0B0",
"8X c #E6CAA2",
"9X c #EACEA4",
"0X c #EED1A7",
"qX c #EBCDB3",
"wX c #FCEFB2",
"eX c #BDBEC3",
"rX c #DDD6D2",
"tX c #E7DDD8",
"yX c #EAD3C6",
"uX c #FFFFD6",
/* pixels */
"                                                                                                    ",
"                                                                                                    ",
"                                                                                                    ",
"                                                                                                    ",
"                                                                                                    ",
"                                      - - , : : , , , : , :                                         ",
"                                    c L.K.a.i.p.i.a.a.p.i.t.= %                                     ",
"                                  c s.oX.XF.Z.Z.S..XS.V.N.p.x c c                                   ",
"                                , K. XA.C.N.C.D..XA.V.M.j.m.v. XK.,                                 ",
"                                , K.XXD.D.D.C.D.XXA.V.N.b.m.c.5X=X1                                 ",
"                              1 c |.#X$X#X.XC.D.XXA.N.N.C.m.z.wXeX2                                 ",
"                            o Z |.oX5XuX6XF.A.D.XXC.V.N.V.m.z.wXeX3                                 ",
"                            $ Z OXOX$XwX5XF.C.D.XXA.V.V.V.b.k.@X`...h                               ",
"                            $ Z OXOXXX.XXXF.C.D. XB.M.n.B.m.f.y.f.f.k .                             ",
"                            $ Z XXS.Z.A.A.Z.Z.n.k.j.k.j.k.u.w w w w u                               ",
"                            . A D.Z.M.b.b.n.b.f._ ` _ ` ` ..V V a *                                 ",
"                            * x B.N.m.g.g.g.d.z > : , > + C _.).3.;                                 ",
"                          % $ z k.m.y.j w h h C 4.3.5.9.f } ].{.H., $ *                             ",
"                        g j j z ' ] _ 8 7 O o b 5.Y.`.'.W  .'.+XH.; X +                             ",
"                      = l d.g.` , ; y Q T 9 6 O v ^.+X_.W  .}.+XY.1 * =                             ",
"                    = = w k k w & O R Q 0 7 m V 4._.{._.W./.2X1X:XT.F *                             ",
"                    = = $ $ $ * o 8 R T 7 < { G.).}.{.{.>X1X8X9X<X*XG *                             ",
"                                + 7 9 0 7 u H.).}.<X8X3X3X8X8X9XR.v ; =                             ",
"                                  5 5 9 d 5.^.`.{.3X8X8X8X9X8XT.G = X                               ",
"                                  6 5 6 C G._.}.{.4X8X8X3X4X*Xn . =                                 ",
"                                        : n G._.}.}.1X8X1XI.v = .                                   ",
"                                        . - N P 4.4.7.0.^.4.= $                                     ",
"                                        & & 2 > : : : i 3.P ;                                       ",
"                                      $ o 2 Y 3./ ! ( ( m ,                                         ",
"                                    : e e B w./.!.,.*.&.{ b                                         ",
"                                  o r O.O.O.#.:X7X2.*.-.Q.8.>                                       ",
"                                = t ) %.=.%.+.{ J p ^ -.l.2.8.n X .                                 ",
"                              # p 8.!.~.1.%.! M F D C O.%.l.~.V ; b v                               ",
"                            . r | ;XtXyX~.O.i I ;X<X0.i O.l.(.N b Y.P *                             ",
"                            . n U.(.[.[.l.,.5.:X0X0X:X0.} X.(.N n _.P X                             ",
"                            . H q.:.*.*.*.<.].1X3X3X0X;Xv m !.N v G.K .                             ",
"                              4 < / @.#.+.>.'.}.>X3X0X;Xv m &.r = 1 <                               ",
"                                o r t r t M P ^.+X1XE.I M ^ %.r % X                                 ",
"                                  = + @ # # s 3.).).3.e ^ %.=.M 1                                   ",
"                                  . w ! / ( ;.[ a v M +.%.*.-.!.8.>                                 ",
"                                  * i O.+.$.*.| B d ^ -.*.<.l.,X*X> X                               ",
"                                  $ i ;.#.@.-.Q.!.;.+.=.*.1.[.yX-X2 + =                             ",
"                                  $ a I.:.-.Q.r.;.d ~ @.$.!.qX&XH S S 3 ;                           ",
"                                  $ 3 Y /.[.,Xe.[ # i ! X.U.%XD $ 3 S 3 ;                           ",
"                                + $ * 2 %XtXrXU o     < q.Y 2 * & ; = = =                           ",
"                                = * . = H Y Y H         D 3 . o & $ = *                             ",
"                                = = = = X . ; ;         . . = = = = = +                             ",
"                                  = = = . ; S 2 =       = = = . = *                                 ",
"                                    = = . ; 2 ; =         = = = =                                   ",
"                                      = = = * = =           = = =                                   "
};
