/* XPM */
static char *_432598f2e7a46efe89e8995db446d67VM0zPRsN2UPenCKN[] = {
/* columns rows colors chars-per-pixel */
"50 50 226 2 ",
"   c None",
".  c #15161E",
"X  c #1C1D1E",
"o  c #151A1D",
"O  c #271F1F",
"+  c #29221D",
"@  c #34271E",
"#  c #39311F",
"$  c #161721",
"%  c #1B1D21",
"&  c #201F21",
"*  c #1C2021",
"=  c #222221",
"-  c #2B2621",
";  c #2C2A24",
":  c #2C2C2B",
">  c #332921",
",  c #3D2D26",
"<  c #312B25",
"1  c #3B342B",
"2  c #363528",
"3  c #2F3134",
"4  c #333333",
"5  c #3B3C3C",
"6  c #3A3733",
"7  c #490809",
"8  c #570C0A",
"9  c #4A1315",
"0  c #591818",
"q  c #750D0C",
"w  c #791216",
"e  c #661213",
"r  c #4D281D",
"t  c #5D341B",
"y  c #58311A",
"u  c #66371B",
"i  c #742F19",
"p  c #44392B",
"a  c #5C3925",
"s  c #443C30",
"d  c #4B2624",
"f  c #653D24",
"g  c #55471A",
"h  c #5D591D",
"j  c #69541A",
"k  c #754E1A",
"l  c #74691B",
"z  c #49442D",
"x  c #5A4C22",
"c  c #5F5D26",
"v  c #4B4134",
"b  c #544535",
"n  c #5C4D3A",
"m  c #5A4836",
"M  c #5E5736",
"N  c #674A37",
"B  c #63533C",
"V  c #695A36",
"C  c #795637",
"Z  c #724C2B",
"A  c #656532",
"S  c #7A7936",
"D  c #797836",
"F  c #786B31",
"G  c #52514E",
"H  c #705C40",
"J  c #776446",
"K  c #776955",
"L  c #676766",
"P  c #797979",
"I  c #891818",
"U  c #971213",
"Y  c #88261B",
"T  c #943725",
"R  c #AF1212",
"E  c #CD1414",
"W  c #8A4318",
"Q  c #964617",
"!  c #A54C18",
"~  c #BE510F",
"^  c #886A16",
"/  c #987715",
"(  c #8A680D",
")  c #A07A16",
"_  c #99542B",
"`  c #9C5D39",
"'  c #8B5338",
"]  c #B75A24",
"[  c #A34830",
"{  c #AD5B3B",
"}  c #BA6432",
"|  c #C95715",
" . c #D55B14",
".. c #C7520E",
"X. c #E15E12",
"o. c #E15C0E",
"O. c #DE631B",
"+. c #E36215",
"@. c #EB6617",
"#. c #FE6D17",
"$. c #FD6D19",
"%. c #F66B18",
"&. c #FF711B",
"*. c #F6640E",
"=. c #C96A32",
"-. c #EC722A",
";. c #FE7422",
":. c #FA7728",
">. c #F67C34",
",. c #EA6E26",
"<. c #805C47",
"1. c #A45641",
"2. c #826949",
"3. c #8C734D",
"4. c #94764D",
"5. c #897757",
"6. c #977B52",
"7. c #AF744F",
"8. c #8A7B64",
"9. c #C47749",
"0. c #D57C47",
"q. c #998D15",
"w. c #B68A15",
"e. c #AE8E16",
"r. c #858535",
"t. c #A29F2C",
"y. c #B6A917",
"u. c #CB9A13",
"i. c #D39F11",
"p. c #D0B414",
"a. c #E5B912",
"s. c #E4B00D",
"d. c #FF8237",
"f. c #FD833C",
"g. c #CFB737",
"h. c #EEC912",
"j. c #ECDA16",
"k. c #F7D813",
"l. c #EEC10E",
"z. c #FDEB15",
"x. c #FAE613",
"c. c #FFF114",
"v. c #FFF21C",
"b. c #FFFB19",
"n. c #F1D527",
"m. c #FBEA25",
"M. c #FFF221",
"N. c #FEF92B",
"B. c #FFF637",
"V. c #FFF73A",
"C. c #FFFA35",
"Z. c #F0E736",
"A. c #D5C718",
"S. c #96805A",
"D. c #A28355",
"F. c #AE8C5A",
"G. c #A98958",
"H. c #B08856",
"J. c #BC965E",
"K. c #BF985F",
"L. c #8F836E",
"P. c #BB9664",
"I. c #AD987A",
"U. c #B18864",
"Y. c #BCBC60",
"T. c #C78759",
"R. c #D38C59",
"E. c #F98845",
"W. c #F3945C",
"Q. c #E88950",
"!. c #EABD44",
"~. c #C39C65",
"^. c #D49673",
"/. c #F49C68",
"(. c #EF9460",
"). c #D9AA6B",
"_. c #DEB16F",
"`. c #DEB374",
"'. c #C9A167",
"]. c #E5B572",
"[. c #E8BD7C",
"{. c #E8B877",
"}. c #E1B16F",
"|. c #DDDB4C",
" X c #CBCB4A",
".X c #EBC75C",
"XX c #EBE643",
"oX c #FFFA43",
"OX c #FFFA4A",
"+X c #FCF448",
"@X c #F9F653",
"#X c #FEFD53",
"$X c #F0ED51",
"%X c #ECC27B",
"&X c #EDC171",
"*X c #FFFD68",
"=X c #FFFD79",
"-X c #918D8C",
";X c #A89E98",
":X c #B0988A",
">X c #BAA38C",
",X c #9B9FA2",
"<X c #B0B1AD",
"1X c #DFBE8C",
"2X c #DDBA97",
"3X c #D1B290",
"4X c #E5BE85",
"5X c #F0B897",
"6X c #C2BAA3",
"7X c #DBC29A",
"8X c #EAC58E",
"9X c #E6C18B",
"0X c #E7C798",
"qX c #F1C485",
"wX c #FFFE8C",
"eX c #D6C6BD",
"rX c #E6CBA2",
"tX c #E9CCA2",
"yX c #ECD1A5",
"uX c #F4D6AB",
"iX c #EBCBB8",
"pX c #FFFEA8",
"aX c #D5CBC4",
"sX c #FDF8D4",
"dX c #FFFDEB",
"fX c #FEFDFA",
/* pixels */
"                                                                                                    ",
"                                                                                                    ",
"                                                                                                    ",
"                                                                                                    ",
"                                                                                                    ",
"                                                                                                    ",
"                                      o o $ $ $ $ $ $ $                                             ",
"                                    z M A c c h c c c h                                             ",
"                                  * A |.$XXXj.j.n.XXZ.A.h % - = ;                                   ",
"                                : r.g.N.C.N.b.N.C.C.m.a.q./ q.t.r.2                                 ",
"                              2 A  XOXM.v.v.z.V.OXv.k.s.i.n.OX*XY.1                                 ",
"                            * F |.@X#XOXOXV.z.V.OXM.z.x.s..XsXdX<X4                                 ",
"                            % S @X#X=XpXwXV.v.B.OXM.c.x.s.&XdXfX<X3                                 ",
"                            X S @X#XwXsXwXV.v.V.OXv.c.z.l..XsXdX6Xb @                               ",
"                            % S @X#X*X=X*XoXv.V.OXv.c.c.k.n.!.!.g.u.j *                             ",
"                            % S @XoXC.N.B.B.v.m.Z.k.k.h.y.q.( ( ( / g                               ",
"                            * S +XN.c.x.z.x.j.p.i.i.i.w.h : 2 < < -                                 ",
"                            % ^ m.b.x.h.l.u.l g g g g x C 6.G.6.B =                                 ",
"                            % l h.p.q.q.) ^ p s v v , d 7._.{.T.<.m                                 ",
"                          ; + l u.j > > @ p V 4.G.G.' I T.[.).[ T 7.                                ",
"                      = j / / ^ j i I U e 9 p J K.).{ I T.%X_.T Y H.                                ",
"                      = j w.w.j O w E E U 0 d J J.].9.[ R.%X].7.` P.6.                              ",
"                  = = = ; # # ; O e R R e , B 4.J._.}.).}.4X0X2X2X2XK %                             ",
"                              % O 9 q U 9 4 4.J.).4X8X8X9X0XrXtXyX8XJ X                             ",
"                                O 7 8 q r n F.).4X0XrXrXrXrXrX0X1XP.B %                             ",
"                                  7 7 8 C F.).].[.0XrXrXrXrXrX8XP.m 2                               ",
"                                    7 8 N J 3.3.5.8.>X0X0X8X9XF.H =                                 ",
"                                        O O - + > @ K 3X{.`.'.n X                                   ",
"                                  * * * % % % y Q ! Z H G.D.b                                       ",
"                                  y a t t a G _  .X.! u V n %                                       ",
"                                @ Q | | ..=.-X7. .%.&.O.f ;   ; : ;                                 ",
"                            * % + Q o.@.o.0.eX^. .%.#.&.9.<.: 2.F.D.n .                             ",
"                            = @ u 7.>.,...1.;XT.X.$.$.;.E.9.N 3.~.{.6.b                             ",
"                            % y } 2X5X-.i : s _ $.$.$.$.;.>.Q.H H '.].F.1                           ",
"                            * n U.^.9.k 2.L.L.C W @.&.$.$.f./.f s J.[.~.s                           ",
"                            % G P ` W m I.uXrXL.m ] @.$.&.>.(.N s D.~.D.1                           ",
"                              3 4 > N P.4XrXtX7XI.m Q $.#.d.W.N s D.H 1                             ",
"                                o . B ].qX0XtXuX3X5 i %.@.>.(.N ; N 1 % *                           ",
"                                  X b ~.`.4X0X2XI.b Q %.+.-.W.<.4 = = : = =                         ",
"                                  + ; m F.[.[.5.m ] @.#.%.%.>.3X-X3 4 5 ; * =                       ",
"                                  = X = B 4.3.C W @.d.d.;.f./.>XP : 3 6 = X =                       ",
"                                = = & = : 4 p ! $.&.d.E.:.(.aXL * & = = = = =                       ",
"                            = = = = % = P >X} +.;.E.f.=.X.R.<XG X O % = - * =                       ",
"                            = = = = X : ,XiX>.*.:.E.=.W T ' L 5 X * = = = = =                       ",
"                            = = = = X : ,XeX=...| | W ; - - : * = = = * = % =                       ",
"                            = = = % X ; L.;XZ y y y r         O + * = = = = =                       ",
"                            = = % : = : G L 3 o * *             * % = = = = =                       ",
"                            = X : 5 5 = 3 3                       + = = = =                         ",
"                              = = 4 4                                                               ",
"                                = X =                                                               "
};
