/* XPM */
static char *_b25df92039248a4d35c5abafe99cc6c8MPNAoKn4a9w72Fg[] = {
/* columns rows colors chars-per-pixel */
"50 50 221 2 ",
"   c None",
".  c #1C1D1E",
"X  c #15181C",
"o  c #281E1F",
"O  c #341718",
"+  c #2A221D",
"@  c #34261E",
"#  c #3D291D",
"$  c #3B351F",
"%  c #141C21",
"&  c #1B1D21",
"*  c #161722",
"=  c #0F1123",
"-  c #1D2021",
";  c #212121",
":  c #2B2520",
">  c #2C2C2C",
",  c #292926",
"<  c #312E22",
"1  c #372C24",
"2  c #313125",
"3  c #3A342A",
"4  c #343434",
"5  c #3C3C3C",
"6  c #383939",
"7  c #490809",
"8  c #510C0B",
"9  c #491519",
"0  c #5A1618",
"q  c #660C0C",
"w  c #791516",
"e  c #7D0E0E",
"r  c #442B1C",
"t  c #4C281D",
"y  c #453B1C",
"u  c #4E381E",
"i  c #51311E",
"p  c #5E351D",
"a  c #67361A",
"s  c #763D1B",
"d  c #783C19",
"f  c #70231E",
"g  c #483829",
"h  c #593926",
"j  c #423D34",
"k  c #673B26",
"l  c #703C2D",
"z  c #49461D",
"x  c #53461C",
"c  c #5A561C",
"v  c #634F1B",
"b  c #6A541B",
"n  c #755C19",
"m  c #7A6619",
"M  c #79711D",
"N  c #5B452B",
"B  c #55552C",
"V  c #484033",
"C  c #57483A",
"Z  c #674429",
"A  c #7D4C2B",
"S  c #694B39",
"D  c #6A593E",
"F  c #685339",
"G  c #77543B",
"H  c #6A5E29",
"J  c #7A7936",
"K  c #6D6C2E",
"L  c #474846",
"P  c #544A42",
"I  c #5B5A59",
"U  c #6C5C48",
"Y  c #7A6646",
"T  c #766855",
"R  c #666768",
"E  c #78726B",
"W  c #9C1212",
"Q  c #8C1613",
"!  c #B71212",
"~  c #813E18",
"^  c #8E291E",
"/  c #973828",
"(  c #C91515",
")  c #894219",
"_  c #9C4817",
"`  c #A64B15",
"'  c #B24F16",
"]  c #BA5519",
"[  c #B24B0E",
"{  c #896A16",
"}  c #917817",
"|  c #A47F16",
" . c #8A4927",
".. c #935632",
"X. c #8C532E",
"o. c #B85C27",
"O. c #AB5B35",
"+. c #AA5338",
"@. c #B16836",
"#. c #B3672F",
"$. c #8F7223",
"%. c #C85816",
"&. c #D45B14",
"*. c #D85D14",
"=. c #E35F12",
"-. c #CF601D",
";. c #DC631B",
":. c #D5631C",
">. c #ED6616",
",. c #E66418",
"<. c #F46917",
"1. c #FD6C17",
"2. c #F46B18",
"3. c #FD6D19",
"4. c #F36714",
"5. c #FF7019",
"6. c #EB600F",
"7. c #C55F24",
"8. c #CA6226",
"9. c #C77637",
"0. c #DB6B2A",
"q. c #FA7525",
"w. c #E8712C",
"e. c #866A47",
"r. c #8B724C",
"t. c #94754C",
"y. c #9E7F51",
"u. c #8F6B51",
"i. c #B06A45",
"p. c #8E7B68",
"a. c #907C71",
"s. c #AB7C61",
"d. c #CE7D4B",
"f. c #E07D42",
"g. c #B29717",
"h. c #B2A81B",
"j. c #ACA019",
"k. c #B2AF3B",
"l. c #B6B132",
"z. c #939335",
"x. c #C69612",
"c. c #D29E11",
"v. c #D4A612",
"b. c #D6B414",
"n. c #E5B40B",
"m. c #EBBA15",
"M. c #E0AD11",
"N. c #FF8337",
"B. c #EF803B",
"V. c #E7CA14",
"C. c #F6D613",
"Z. c #E6D716",
"A. c #FAE413",
"S. c #FAE916",
"D. c #FFF214",
"F. c #FFF21C",
"G. c #FFFB1E",
"H. c #F0D72F",
"J. c #FFF222",
"K. c #FFF72E",
"L. c #FEF536",
"P. c #FFF939",
"I. c #A98856",
"U. c #B58353",
"Y. c #BC975F",
"T. c #A9A841",
"R. c #B3B246",
"E. c #8E806A",
"W. c #B19272",
"Q. c #CD8E57",
"!. c #F0945E",
"~. c #F28D51",
"^. c #C39E67",
"/. c #CB9474",
"(. c #D59774",
"). c #CF9465",
"_. c #EF9B69",
"`. c #CBA265",
"'. c #CBA368",
"]. c #DAAB6B",
"[. c #DEB478",
"{. c #D0AF71",
"}. c #ECA67C",
"|. c #E6BA78",
" X c #E2AF6F",
".X c #EEC843",
"XX c #F7ED43",
"oX c #FFFA43",
"OX c #FFFB4B",
"+X c #F7F345",
"@X c #FEFD53",
"#X c #F9F652",
"$X c #E4E450",
"%X c #EDC27A",
"&X c #ECC36F",
"*X c #FFFD65",
"=X c #FFFD79",
"-X c #A08F86",
";X c #BCB38C",
":X c #BDBEBE",
">X c gray55",
",X c #C6A988",
"<X c #D2B798",
"1X c #E7BD85",
"2X c #C8B7AE",
"3X c #D6C09B",
"4X c #EAC388",
"5X c #E6C89D",
"6X c #E8C898",
"7X c #F7D988",
"8X c #FFFD95",
"9X c #FFFD88",
"0X c #D8C7BD",
"qX c #E6CBA2",
"wX c #EACEA6",
"eX c #EED2A7",
"rX c #F1D3A9",
"tX c #FFFFB1",
"yX c #D9D3D0",
"uX c #FFFFD6",
"iX c #FFFDFA",
/* pixels */
"                                                                                                    ",
"                                                                                                    ",
"                                                                                                    ",
"                                                                                                    ",
"                                                                                                    ",
"                                      2 2 2 < @ 2 2 2 <                                             ",
"                                    B T.R.k.h.h.h.k.l.j.z = % X                                     ",
"                                  B z.+XOXP.G.G.K.oXK.Z.{ x c H B                                   ",
"                                3 R.XXF.F.F.F.L.OXJ.C.M.c.b.Z.XXR.3                                 ",
"                              H k.$XOXL.L.K.F.L.OXF.A.V.n..X8XtX;X4 X . ;                           ",
"                            . J #X@X*X=X*X+XF.L.OXJ.D.A.n.&XiXiX:X6 : g ; -                         ",
"                            . J #X@X9XuX8XL.J.L.OXF.D.A.n.&XiXiX2X6 F e.2 - ;                       ",
"                            . J #X@X=XtX=XoXF.L.OXJ.D.D.C.H.7X7X].} H U D j ;                       ",
"                            . J #XOXOXOX#XP.F.L.XXS.A.A.Z.b.g.x.x.g.b j y.D ;                       ",
"                            & J OXK.F.J.J.J.F.C.m.m.m.b.m z y y y u N Y I.D .                       ",
"                            . J L.G.A.C.C.V.j.} { { { { N C U F j & Z $.B.O.A r                     ",
"                            * M Z.A.n.c.c.| $ , 2 2 < g r.). XY.Y 3 ) &.4.5.;.i X                   ",
"                          * * m b.z.c z x z ; C r.r.l w U.|. X@./ e.#.%.*.4.;.i %                   ",
"                        N c v { } a 9 0 9 O O N t.^.+.^ Q.|. X/ ^ U.9.&.%.>.;.i %                   ",
"                      o n x.x.{ 1 Q ! ( W q 8 O V ^.@.^ Q.|.].+./ U.#.%.%.4.;.i %                   ",
"                    ; ; y b b z o w ! ! e 9 k F r.{.Q.Q._.1X1X/./.,Xe.s ] >.;.i %                   ",
"                    ; ; & & & - : 8 Q W 9 3 e.I.`.[.|.4X4X4XqXwXqX6XU # ' &.] i                     ",
"                                o 9 q e 9 j I.`.|.6XqX5X5X5XqXqX6X[.U r ' ) 1                       ",
"                                  7 7 q Z r.`. X4X5XwXqXqXqXqX6X{.T E p.7.d &                       ",
"                                  8 7 8 G I.Y.^.^.,X<XqX5X5X6X{.t.h a.,Xo.a ;                       ",
"                                        1 g j j j j p.5X4X|.[.T Z -.0.O.g @                         ",
"                                        X X X t a a S y.'.Y.e.A ` 2.] a +                           ",
"                                  @ @ @ @ 1 >  .&.&.) g e.G g ] 3.,.s ;                             ",
"                                : ~ ` _ ` ..p.i.*.>.,.] N s %.2.-.a 1                               ",
"                              r a [ *.,.6.9.2Xs.&.2.5.2...e.d.8.) :                                 ",
"                            & k %.7.;.3.4.~.0X/.*.2.3.q.~.(.-XP +                                   ",
"                            * P W.<X}.q._ k I @.1.3.3.5.q.~./.P X                                   ",
"                            . P W.2X}.w.X.P C X.%.2.3.3.3.N.!.S X                                   ",
"                            . k ] -.-.-.).3X<XT h *.5.3.3.N.!.S X                                   ",
"                              r d [ ;.Q.1XrXwX;Xp.A ] 3.3.N.!.S .                                   ",
"                                + ~ 9.|.4XqXqXrX,X5 d 3.3.N.!.S .                                   ",
"                                  @ D ].|.4X5XeX,X5 A 4.=.w.!.S . - - -                             ",
"                                - . 3 e.`.%X4XW.T X.%.3.,.q.B.Z , 4 6 4 ,                           ",
"                              ; - ; - : r.'.`.Y a ;.1.3.1.2.-.a > L L 5 ,                           ",
"                            ; ; - + - - 3 V V  .:.2.5.5.5.%.i : - > > > ;                           ",
"                          ; ; ; ; + 5 R G s s ] 1.4.>.>.2._ ; & ; - - & ;                           ",
"                          ; ; ; ; X R yX_.>.<.3.<.%.] ] %.) + - o ; ; ; ;                           ",
"                        ; - ; ; ; . R yX_.6.=.6.%.a r h i # ; ; ; ; ; ; ;                           ",
"                        ; - + ; & % R 2Xs.~ ) _ ) @ % - % & ; ; ; ; ; ; ;                           ",
"                        ; ; ; ; ; & L >XI + : : :           ; ; ; ; ; & ;                           ",
"                        ; ; ; > 5 > 4 L 6                     ; ; ; ; ;                             ",
"                          - - 4 5 > o .                       ; ; ; ; ;                             ",
"                            o ; ,                                                                   ",
"                                                                                                    ",
"                                                                                                    "
};
