/* XPM */
static char *_3b034ef2376463efc206ffad0a6c2429OfyYIqjoKkOAd99[] = {
/* columns rows colors chars-per-pixel */
"50 50 227 2 ",
"   c None",
".  c #0D1216",
"X  c #131517",
"o  c #15161A",
"O  c #15191B",
"+  c #1B1B1B",
"@  c #0A0B1A",
"#  c #380C12",
"$  c #221C1A",
"%  c #251B16",
"&  c #2D1113",
"*  c #2B2A1C",
"=  c #26211A",
"-  c #332319",
";  c #3A2517",
":  c #3D3316",
">  c #232322",
",  c #2D2822",
"<  c #2C2C2C",
"1  c #272624",
"2  c #322C23",
"3  c #322B25",
"4  c #333223",
"5  c #32302B",
"6  c #3E352C",
"7  c #323232",
"8  c #393A3B",
"9  c #2E3133",
"0  c #480505",
"q  c #540706",
"w  c #461414",
"e  c #501417",
"r  c #660505",
"t  c #7C0A0B",
"y  c #671D16",
"u  c #492C1A",
"i  c #562E15",
"p  c #473917",
"a  c #583119",
"s  c #77370F",
"d  c #683617",
"f  c #712F18",
"g  c #433B2E",
"h  c #453222",
"j  c #5A3B26",
"k  c #453E37",
"l  c #523D33",
"z  c #693926",
"x  c #574715",
"c  c #4B4016",
"v  c #675614",
"b  c #765D14",
"n  c #7C431F",
"m  c #575628",
"M  c #4F483E",
"N  c #4B4336",
"B  c #594835",
"V  c #4E4D28",
"C  c #6B4328",
"Z  c #784A2B",
"A  c #674733",
"S  c #6B563C",
"D  c #775733",
"F  c #767532",
"G  c #766D29",
"H  c #756E16",
"J  c #414142",
"K  c #484A4B",
"L  c #54504A",
"P  c #6F5C40",
"I  c #786242",
"U  c #796B57",
"Y  c #696B6C",
"T  c #76726F",
"R  c #890709",
"E  c #9D0909",
"W  c #A00A0B",
"Q  c #9B2B1D",
"!  c #9C3422",
"~  c #A43D28",
"^  c #C40F0F",
"/  c #9C430B",
"(  c #974613",
")  c #894C12",
"_  c #A94B0F",
"`  c #B24D0C",
"'  c #A84D13",
"]  c #B85617",
"[  c #B8500F",
"{  c #87670D",
"}  c #8A6B0E",
"|  c #9D790E",
" . c #897718",
".. c #866811",
"X. c #814921",
"o. c #915233",
"O. c #BA5F26",
"+. c #A6472E",
"@. c #B06536",
"#. c #CA560C",
"$. c #D55A0B",
"%. c #DA5C0C",
"&. c #C65914",
"*. c #D15B10",
"=. c #E15D09",
"-. c #EC630D",
";. c #FD6B0E",
":. c #F7670B",
">. c #E86A18",
",. c #F66C15",
"<. c #FE7217",
"1. c #D87231",
"2. c #D16B26",
"3. c #FB7F29",
"4. c #E77D3B",
"5. c #8E5F41",
"6. c #836945",
"7. c #876D48",
"8. c #8C7149",
"9. c #96754A",
"0. c #82735B",
"q. c #9C7B51",
"w. c #A76B48",
"e. c #8A7962",
"r. c #857B74",
"t. c #A87C60",
"y. c #C27A4D",
"u. c #BB960C",
"i. c #AB890D",
"p. c #B8A90E",
"a. c #B1A815",
"s. c #B0AD38",
"d. c #B0AB2E",
"f. c #928F31",
"g. c #CC9B0A",
"h. c #C3940A",
"j. c #D19F0A",
"k. c #D1A20A",
"l. c #EABB09",
"z. c #E4BE09",
"x. c #E5B416",
"c. c #FF8433",
"v. c #F7823A",
"b. c #E8C40A",
"n. c #F6D609",
"m. c #F5D607",
"M. c #F4D314",
"N. c #F0D00B",
"B. c #FDE90B",
"V. c #FAE50C",
"C. c #FFF20D",
"Z. c #FFF214",
"A. c #FFF31A",
"S. c #FFF917",
"D. c #FBE817",
"F. c #FFF82A",
"G. c #F6ED3E",
"H. c #FEF633",
"J. c #FFFA3B",
"K. c #FCF739",
"L. c #AB8958",
"P. c #B7925C",
"I. c #ACAB41",
"U. c #B7B644",
"Y. c #B0AE45",
"T. c #A88766",
"R. c #BA8767",
"E. c #BC9862",
"W. c #A49175",
"Q. c #B7997E",
"!. c #B9A17C",
"~. c #CA8452",
"^. c #E7884E",
"/. c #FD8B45",
"(. c #E78D54",
"). c #F79559",
"_. c #CB9566",
"`. c #CB8D66",
"'. c #EA9968",
"]. c #CCA266",
"[. c #C9A269",
"{. c #D8AA6B",
"}. c #D6B965",
"|. c #E3AD6B",
" X c #FBA56D",
".X c #E8B36D",
"XX c #FAA673",
"oX c #E4B471",
"OX c #E9BC7C",
"+X c #E7BA77",
"@X c #D3D048",
"#X c #F4CC5E",
"$X c #FFFB43",
"%X c #FFFC4A",
"&X c #F9F64E",
"*X c #FDFB53",
"=X c #F1C17A",
"-X c #EFC179",
";X c #FFFE65",
":X c #FFFD79",
">X c #9B9795",
",X c #8B8683",
"<X c #BBA483",
"1X c #BEBE8E",
"2X c #9FA0A0",
"3X c #D7BA97",
"4X c #CEAF8B",
"5X c #E7BE81",
"6X c #FDB78A",
"7X c #DFC39B",
"8X c #E9C38A",
"9X c #E7C99D",
"0X c #E9C897",
"qX c #F0C78B",
"wX c #FFFC86",
"eX c #FFFE90",
"rX c #DCC1AF",
"tX c #E7CBA3",
"yX c #EACDA3",
"uX c #EED2A8",
"iX c #ECCEB4",
"pX c #FCF0B2",
"aX c #BBBDC4",
"sX c #DDD7D3",
"dX c #E8DED8",
"fX c #EBD4C5",
"gX c #FFFED6",
/* pixels */
"                                                                                                    ",
"                                                                                                    ",
"                                                                                                    ",
"                                                                                                    ",
"                                                                                                    ",
"                                        * * * * * * * * * , *                                       ",
"                                    @ + f.p.p.d.s.a.a.a.s.Y.I.m                                     ",
"                                  m m v p.B.C.F.J.F.S.S.F.$X$Xf.V                                   ",
"                                1 I.&XM.b.b.B.C.F.J.H.C.Z.Z.A.G.Y.4                                 ",
"                                < 1XwXM.N.m.B.C.A.%XH.Z.F.H.H.%XU.*                                 ",
"                                9 aXpXk.m.C.C.B.A.$XH.Z.J.;X:X;X@Xm 4                               ",
"                                7 aXpXx.m.C.C.C.A.$XH.A.J.eXgXwX%X@XF o                             ",
"                              p  .}.#Xx.n.S.C.C.S.%XJ.Z.$X:XpX:X*X*XF O                             ",
"                            o v u.h.h.h.b.D.B.V.D.G.F.Z.K.%X%X$X*X*XF O                             ",
"                              : p p u p i.l.l.l.l.x.M.C.A.A.S.S.F.&XF o                             ",
"                                O 6 B S ..{ { { { { u.n.n.n.n.B.S.H.G +                             ",
"                                * 6.].{.D % 3 3 * , b k.k.g.k.N.B.V.H O                             ",
"                            + X 1 L.+X|.o.y q.q.6.7.D c c c x u.N.z.b @ o                           ",
"                            + X 1 L.-X|.~ Q |.oX_.8.j & & w y b | | ..x x p                         ",
"                            + + 5 P.=XoX+.! {.=XE.N & q r W ^ y $ - ..g.g.b +                       ",
"                            + M W.4X0X8X_.~.{.+X{.8.A C e t ^ R w o p v v p + +                     ",
"                            O L <X9XyX9X8X8XOX8XoX].P.D 5 w E R q $ o o o + + +                     ",
"                            + $ k Q.yXtX9X9X9XtX7X+X].L.6 # t r # %                                 ",
"                              X + L W.tXuXtXtXtX9XOX|.].8.z r q 0                                   ",
"                                + X M <X0X9XyX9X0XOXoX{.L.o.0 0 0                                   ",
"                                  + + N T.qX9X0XOX+X{.P.B *                                         ",
"                                    X + 8._.e.0.7.7.I B , .                                         ",
"                                      * S 7.h - * - , < + +                                         ",
"                                        * x ] _ ! _ 5.Y 9 X O                                       ",
"                                        N o.,.;.>.(._.t.Z i a ;                                     ",
"                                      2 w./.<.:.v.rX4X#.#.$.[ a +                                   ",
"                                X X B w.v.c.<.' a L o.$.-.:.-.` s $                                 ",
"                              g N * A ).c.-.&.D L M C _ -.c.(.(.@.a ;                               ",
"                            + P E.N B ).c.&.h U 3X3X0.u #.).iXdX3XO.a +                             ",
"                            + P {.B B '.@.Z e.4XuXuX<X9.>.c. XXX'.R.B +                             ",
"                            + S L.g z ^.A N 3XuXyX0XqX.Xc.:.:.:.1.r.K +                             ",
"                              2 5 + C >.d N 3XuX0X5X+X|.1.$.$.%.( 6 <                               ",
"                                  . d -.' C U !.qX=XE.I d d d s i %                                 ",
"                                  2 n >.-.' i 6.[.[.6.u ; - - % +                                   ",
"                                , 5.v.<.;.:.*.Z g g X.&.` _ ( u O                                   ",
"                              X < Q.6X3.3.;.;.` d A O.;.=.$.#.i O                                   ",
"                            + + 7 2XiXXX3.;.,.$.&.^./.,.%.*.] a O                                   ",
"                          > 8 N J K ,XiX(.=.=.! z 2././.<.1.T.k o                                   ",
"                        O > 9 J 8 + J >XR.@.( u % s y.6XXX`.Y 8 +                                   ",
"                          + > + + + + < T T 5     % T dXdX>X< + + +                                 ",
"                            + + + + + + 8 K         K Y Y K + X + +                                 ",
"                            + + + + + + + +         > > + o + + + +                                 ",
"                                + + + + + +       + 9 J 1 + + + +                                   ",
"                                  + + + +         + 1 7 > + + +                                     ",
"                                  + + +           + + + + + +                                       "
};
