/* XPM */
static char *_9e4a37cc8ce49638bc58f494e94f7dcPVef5jvLuH03XWcS[] = {
/* columns rows colors chars-per-pixel */
"50 50 126 2 ",
"   c #8E553B",
".  c #8D593C",
"X  c #90573B",
"o  c #945A3C",
"O  c #995E3D",
"+  c #9E613E",
"@  c #A2643F",
"#  c #915D41",
"$  c #926145",
"%  c #9C6342",
"&  c #946549",
"*  c #956A4D",
"=  c #9D6D4C",
"-  c #966E51",
";  c #977053",
":  c #9B7455",
">  c #957E5A",
",  c #A36641",
"<  c #A76943",
"1  c #AB6C43",
"2  c #A26B48",
"3  c #B16F43",
"4  c #AE7146",
"5  c #A1704D",
"6  c #AD7249",
"7  c #AE784F",
"8  c #B37245",
"9  c #B47548",
"0  c #B87749",
"q  c #B5794D",
"w  c #BB7C4C",
"e  c #A47753",
"r  c #A67954",
"t  c #AE7D54",
"y  c #BC7F50",
"u  c #5D8245",
"i  c #608547",
"p  c #658A49",
"a  c #6A8E4B",
"s  c #6E924D",
"d  c #71954E",
"f  c #74994F",
"g  c #729553",
"h  c #769C50",
"j  c #789D51",
"k  c #779959",
"l  c #7B9B5A",
"z  c #7CA352",
"x  c #7F9D60",
"c  c #BF804F",
"v  c #A4825E",
"b  c #BE8455",
"n  c #BD8758",
"m  c #BE8A5B",
"M  c #80A752",
"N  c #80A853",
"B  c #80A458",
"V  c #9C8463",
"C  c #9C8D6B",
"Z  c #829E64",
"A  c #869F69",
"S  c #97966D",
"D  c #9D926D",
"F  c #9C9671",
"G  c #9C9B74",
"H  c #A28864",
"J  c #A88E6A",
"K  c #A39368",
"L  c #A9936D",
"P  c #BC9468",
"I  c #A29771",
"U  c #A29A73",
"Y  c #A99B70",
"T  c #85A166",
"R  c #88A765",
"E  c #86A069",
"W  c #8AA36C",
"Q  c #8EA471",
"!  c #94A474",
"~  c #99A176",
"^  c #99AB75",
"/  c #9CA679",
"(  c #A2AB79",
")  c #B4A77B",
"_  c #BAA77A",
"`  c #B4A97C",
"'  c #BAA97B",
"]  c #C28553",
"[  c #C68955",
"{  c #C88B57",
"}  c #C68D5B",
"|  c #C98D59",
" . c #CA8E59",
".. c #CB8F5A",
"X. c #CC905B",
"o. c #CC915B",
"O. c #CD915B",
"+. c #CC915C",
"@. c #CD925C",
"#. c #CE955F",
"$. c #D1965F",
"%. c #D1975F",
"&. c #CE9560",
"*. c #C49867",
"=. c #C79867",
"-. c #C79B69",
";. c #D29760",
":. c #D39860",
">. c #D39961",
",. c #D59C63",
"<. c #D69C63",
"1. c #D79D63",
"2. c #D09B66",
"3. c #D79D64",
"4. c #D79E65",
"5. c #D89E64",
"6. c #D89F65",
"7. c #CEA26E",
"8. c #D8A066",
"9. c #D9A066",
"0. c #DAA166",
"q. c #DCA367",
"w. c #D5A26A",
"e. c #DBA268",
"r. c #DBA368",
"t. c #DCA469",
/* pixels */
"s s s s s s s s s s s s s s d s s s s s s s s s s s s s s s s s s s s s a s s s s s s s s s s s s s ",
"s s s s s s s s s s s s s s a d s s s s s s s s s s s s s s s s s s p u i s s s s s s s s s s s s s ",
"s s s s s s s s s s s s s d a a s s s s s s s s s s s s s s s s s p u u u i a s s s s s s s s s s s ",
"s s s s s s s s s s s s d a d d s s s s s s s s s s s s s s s s a u u i u u p s d s s s s s s s s s ",
"s s s s s s s s s s s s s s s s s s s s s s s s s s s s s s s s a p u u u i a s s s s s s s s s s s ",
"s s s s s s s s s s s s s s s s s s s s s s s g g g g g s s s s g a p u i a a s s s s s s s s s s s ",
"s s s s s s s s s s s s s s s s s s s s s G G F F F D F ! g s s s s a p a a s s s s s s s s s s s s ",
"s s s s s s s s s s s s s s s s s s s s / J = % 2 % % = L / s s s s s d a d s s s s s s s s s s s s ",
"s s s s s s s s s s s s s s s s s s s ! _ 2.&.:.&.&.#.&.2._ W s s s s s s s s s s s s s s s s s s s ",
"s s s s s s s s s s s s s s s s s s ! ` 7.t.9.t.q.e.t.9.q.7.' ! s s s s s s s s s s s s s s s s s s ",
"s s s s s s s s s s s s s s s s s ! ` w.9.4.5.9.9.9.9.9.9.9.w.) Q s s s s s s s s s s s s s s s s s ",
"s s s s s s s s s s s s s s s s E ' w.9.9.9.5.9.9.9.9.9.9.e.4.m Y W g s s s s s s s s s s s s s s s ",
"s s s s s s s d f f f s s s s g U =.q.5.9.9.9.q.9.q.q.9.e.,.[ 6 r U W g s s s s s s s s s s s s s s ",
"s s s s s s s d z z d s s s d ! : } q.9.9.9.9.5.,.,.,.,.4.| 9 O . * ^ z s s s s s s s s s s s s s s ",
"s s s s s s s g z N f s s s ! H 6 X.q.9.9.q.q.X.c c ] w ] w 8 O   . : G s s s s s s s s s s s s s s ",
"s s s s s s s d z z f f f ! L 7 9 [ X.X.X.X.X.w 3 8 3 @ @ , < o . + X ; ~ s s s s s s s s s s s s s ",
"s s s s s s s d z z j f ^ U -.| 9 9 0 8 0 0 0 w 0 @ @ + O o o X + 1 +   $ ~ a d s s s s s s s s s s ",
"s s s s s s s g z z j j ( v &.5.| 0 @ 8 0 @ @ @ 0 w @ @ @ @ @ @ < 8 @   . G d a s s s s s s s s s s ",
"s s s s s s s d z z f z ( = { >.$.[ ] ] ] w 0 ] ] ] w ] w ] w @ 8 8 +   X F W g s s s s s s s s s s ",
"s s s s s s s d f z d z / + 1 [ q.9.$.$.%.9.%.,.$.1.$.1.1.1.1.[ 8 8 +     # V l s s s s s s s s s s ",
"s s s s s s s s s s l ^ K , 1 ] q.q.q.q.q.q.q.9.q.q.q.q.q.%.[ w 1 @ o       # D A s s s s s s s s s ",
"s s s s s s s s s h W D t 0 9 ] $.$.%.q.q.q.5.5.1.5.1.%.$.{ w @ < X   X         D s s s s s s s s s ",
"s s s s s s s s d ! I *.;.#.0 9 w c [ %.9.5.9.9.q.q.{ w 0 0 3 @ o X           X F g s s s s s s s s ",
"s s s s s s s s d G e >.t.4.| w 8 @ w [ | | | | { { 0 @ @ @ @ + X + % @ + O   X F s s s s s s s s s ",
"s s s s s s s s g F % &.t.5.e.+.0 8 0 0 8 8 0 8 @ w @ + O + O X + 8 8 8 8 @ o X D Z s s s s s s s s ",
"h f s s s s s s g F 2 ;.t.6.6.5.O.w 3 @ 8 3 3 8 w @ 8 @ @ @ @ @ < 8 8 8 8 3 < o & C W s s s s s s d ",
"z z s s s s s s g F % ] >.e.5.e.1.{ ] ] 0 8 8 8 0 w 0 8 0 w w w ] ] ] w 8 8 8 o . & W d s s s s s d ",
"z h s s s s s s g F # 3 { 6.e.5.q.1.5.5.] 8 0 0 0 @ 8 0 0 @ w O.9.4.9.$.9 9 1 O   * G s s s s s d d ",
"f f s s s s s s g F o 3 { 5.q.1.1.q.q.5.%.{ @ @ 0 @ ] O.O.O.:.:.9.9.t.5.X.] 8 O   * Q s s s s s a d ",
"s s s s s s s s W I 2 < w $.5.q.q.q.q.q.q.%.O.c ] w { q.q.5.q.5.9.9.9.9.$.b , X   $ G A s s s s d d ",
"s s s s s s s T F P | @ @ w $.q.1.q.1.q.1.5.q.%.5.1.%.q.5.5.5.5.4.9.t.#.w @   X   # # S k s s s s s ",
"s s s s s s s Q > n 5.] 1 @ w ] ] ] ] ] ] O.1.q.q.q.q.q.q.q.q.O.] [ ] w , + , , O     C k s s s s s ",
"s s s s s s s Q * q $.q.b % 4 4 < 1 1 < @ 0 X.%.%.%.%.%.#.#.} q + 1 1 + O , 8 0 @ o   C k s s s s s ",
"s s s s s s s Q * 2 ] ,.5.+.w @ o o o o o @ 9 0 0 0 0 w q 4 + o + o . + < 8 8 8 @ X   C k s s s s s ",
"s s s s s s s Q ; @ 0 ] $.q.X.q @ + O , @ + + + O + + + + .   + @ + + < 8 9 8 < O # K ! g s s s s s ",
"s s s s s s s A C e 4 8 ] 5.$.[ 9 0 0 0 0 9 % % + % + % + + + 4 0 0 9 8 8 8 < o X * ! s s s s s s s ",
"s s s s s s s s Z U 5 4 0 w w 0 0 | :.:.;.$.#.X.} +.X.X.} +.X.#.%.%.] 8 8 @ o X . * Q s s s s s s s ",
"s s s s s s s s s A G r 1 8 @ @ < ] +.X.| X.| X.X.X.X.X.X.X.X.X.| b 6 , < O     ; G A s s s s s s s ",
"s s s s s s s s s s T D r 1 +   X < 8 8 8 8 3 8 4 4 8 4 4 4 8 4 1 o X X X X X * G k s s s s s s s s ",
"s s s s s s s s s s s T U = X   X o O O O o O # + o O O + + O O o         X * / R f d s s s s s s s ",
"s s s s d d a g s s s s W F F C C D V                 X         & C D K D D G R z z d s s s s s s s ",
"s s s s a a d a s s s s s s a d s g ! - # # # & # & # # $ $ # X C Z g g z B f f z z d s s s s s s s ",
"s s s s d a s d s s s s s s d a s s s ! ~ ! ! ! ~ ! ! ! ! ! ! ! A s s d z N f z N z d s s s s s s s ",
"s s s s s d s s s s s s s s s d s s s s s s s s s s s s s d s s s s a d z N z f z z d d s s s s s s ",
"s s s s s s s s s s s s s s s s s s s s s s s s s s s s s s s s s s s g z z f f f g s s s s s s s s ",
"s s s s s s s s s s s s s s s s s s s s s s s s s s s s s s s s s s a s z z f d d s s s s s s s s s ",
"s s s s s s s s s s s s s s s s s s s s s s s s s s s s s s s s s s s g d f d s s s s s s s s s s s ",
"s s s s s s s s s s s s s s s s s s s g h g d s s s s s s s s s s s s a s s s s s s s s s s s s s s ",
"s s s s s s s s s s s s s s s s s s d g z z d d s s s s s s s s s s s s s s s s d a d d a g d a d a ",
"s s s s s s s s s s s s s s s s s d h j z z j d d s s s s s s s s s s s s s s s s s a d d a d a s d "
};
