/* XPM */
static char *_d98d4ecd1f34f93f090e7be4adeb7630VLrylTvSIm6xx9n[] = {
/* columns rows colors chars-per-pixel */
"50 50 123 2 ",
"   c None",
".  c #8E553B",
"X  c #90573B",
"o  c #945A3C",
"O  c #995D3D",
"+  c #9E613E",
"@  c #A1633F",
"#  c #985F40",
"$  c #9C6342",
"%  c #A36641",
"&  c #A56944",
"*  c #AC6C43",
"=  c #A56C48",
"-  c #B16F43",
";  c #AE7046",
":  c #AD7149",
">  c #B37245",
",  c #B47548",
"<  c #B87749",
"1  c #B5794D",
"2  c #BB7C4C",
"3  c #BC7F50",
"4  c #BF804F",
"5  c #BE8657",
"6  c #BE8253",
"7  c #C08250",
"8  c #C08251",
"9  c #C18251",
"0  c #C18351",
"q  c #C28351",
"w  c #C28452",
"e  c #C38552",
"r  c #C38553",
"t  c #C38653",
"y  c #C48653",
"u  c #C28655",
"i  c #C28756",
"p  c #C48754",
"a  c #C58754",
"s  c #C18352",
"d  c #C58854",
"f  c #C58855",
"g  c #C68955",
"h  c #C68956",
"j  c #C78A56",
"k  c #C88B56",
"l  c #C88B57",
"z  c #C88C57",
"x  c #C38A59",
"c  c #C58C5A",
"v  c #C68D5B",
"b  c #C78E5C",
"n  c #C88C58",
"m  c #C98D58",
"M  c #C98D59",
"N  c #CA8D58",
"B  c #CA8E59",
"V  c #C88E5B",
"C  c #CB8F5A",
"Z  c #C88F5C",
"A  c #CA8E59",
"S  c #CC905A",
"D  c #CC905B",
"F  c #CC915B",
"G  c #CD915B",
"H  c #CA905C",
"J  c #CA915D",
"K  c #CB925E",
"L  c #CC915C",
"P  c #CD915C",
"I  c #CD925C",
"U  c #CE925C",
"Y  c #CF945E",
"T  c #CE955F",
"R  c #CF955F",
"E  c #CC915C",
"W  c #D0955E",
"Q  c #D1965F",
"!  c #D1975F",
"~  c #D2975F",
"^  c #D1975F",
"/  c #CE9560",
"(  c #CF9660",
")  c #D29760",
"_  c #D29760",
"`  c #D19861",
"'  c #D29860",
"]  c #D39860",
"[  c #D39961",
"{  c #D29962",
"}  c #D39962",
"|  c #D49961",
" . c #D49A61",
".. c #D49A62",
"X. c #D59B62",
"o. c #D49B63",
"O. c #D59C63",
"+. c #D69C63",
"@. c #D69D63",
"#. c #D79D63",
"$. c #D69D64",
"%. c #D79D64",
"&. c #D69D65",
"*. c #D79E64",
"=. c #D79E65",
"-. c #D39860",
";. c #D89E64",
":. c #D89E65",
">. c #D89F65",
",. c #D89F66",
"<. c #D9A066",
"1. c #D9A166",
"2. c #DAA066",
"3. c #DAA166",
"4. c #DAA167",
"5. c #DAA267",
"6. c #DBA267",
"7. c #DCA367",
"8. c #DBA268",
"9. c #DBA368",
"0. c #DCA368",
"q. c #DCA469",
"w. c #DEA569",
/* pixels */
"                                                                                                    ",
"                                                                                                    ",
"                                                                                                    ",
"                                                                                                    ",
"                                                                                                    ",
"                                                                                                    ",
"                                                                                                    ",
"                                                                                                    ",
"                                                                                                    ",
"                                            . . . . . .                                             ",
"                                          = $ $ $ $ $ $ =                                           ",
"                                        c { ( T K T ( ( { Z                                         ",
"                                      c { 8.6.6.6.6.8.6.6.{ c                                       ",
"                                    x :.6.=.6.6.6.=.6.6.6.6.=.6                                     ",
"                                  K =.6.=.6.=.=.6.=.=.=.6.6.:.8 *                                   ",
"                                $ K 6.:.6.=.6.6.6.6.6.6.6.X.c > % X                                 ",
"                                O c 6.6.6.:.6.@.@.X.#.#.X.N > O X .                                 ",
"                              O * K 8.6.3.3.6.N 7 2 7 7 7 2 > + . X . .                             ",
"                            : : , d K S F F F 2 > - * @ @ & % o X O o X                             ",
"                          $ K N < > , , < , , > > > % o o o o X O * $ . X                           ",
"                          $ ( :.k < > - - - - > - - * % @ @ @ % * - % . .                           ",
"                          O i =.;.d 2 2 2 2 4 2 4 2 4 2 4 4 2 2 > > # X X .                         ",
"                          O * j ;.@.X.X.@.X.X.X.#.#.X.X.X.#.~ 4 - > $ . . X X                       ",
"                        O % * t 6.7.8.6.6.6.6.6.:.:.0.0.3.X.a 2 * % # X . . . X                     ",
"                      $ : 2 , 6 ~ ~ X.6.6.:.6.:.3.:.=.] X.l > - % X X X . . . . .                   ",
"                    & b { U < > 2 < t ;.6.6.:.6.0.0.N 2 < < > $ X . . X . X X . .                   ",
"                    & ( w.=.k 2 > * < d j l l l l N < % @ % @ X X % @ @ % o . X X                   ",
"                  . $ / w.6.6.N < > > > , > > > > > % o X o o X O - > > > % X X .                   ",
"                  . $ ( 6.<.6.o.U 2 > > > > > - > > * * * * % * * > > , > > & o . X                 ",
"                  . $ t { <.<.6.1.k 7 4 < > > > > > > > > > > 2 8 8 8 2 > > * O . .                 ",
"                  . O * l 6.=.6.6.=.;.@.q > > > > > > , < > < F =.=.:.Q 2 > * O . X                 ",
"                  . o * j 6.6.6.=.6.:.6.~ l > - - - 8 N F F U @.6.6.6.:.Q q * O . .                 ",
"                  & = & 2 T =.6.6.6.6.6.6.{ 8 2 7 4 N 3.7.<.<.<.7.<.<.<.~ 6 @ o . X X               ",
"                X 5 b $ % 2 Q :.=.@.=.=.:.=.@.@.@.X.:.6.<.<.<.<.<.<.<.T 2 @ o X X . . X             ",
"                # 5 &.5 = $ 2 p t t y t t B 6.w.6.w.8.6.<.7.<.Z t t p 4 @ @ & @ + X . .             ",
"                X 1 o.8.6 & ; * * * * * @ < F ~ Q Q Q Q ! T Z 1 @ * * @ + @ > > % X . .             ",
"                X & 7 X.=.Z < & O X o o o + , 2 < < , < 1 : + o o o o + * ; > > & X . .             ",
"                X @ < y ) 6.F 2 @ + + + + @ O O + + + + + o . O @ @ @ @ > , , @ O . X               ",
"                X @ * , y X.X.j , , < < < , $ # $ $ + $ + + $ : 2 < < > > > @ O . .                 ",
"                  O + - < 2 2 , < N { ) ) ) / Z Z K Z Z Z J Z T ~ ~ 7 > > @ O X . .                 ",
"                    o % * > % @ * 6 N N N U C U N U U N F N F F N 5 : & % O . X . .                 ",
"                      X % * o X o = > > > > - - > - > - > > > > & o . X X X . . X                   ",
"                        O O X X . o O # O O O O O O O O O O O O o X . . . X X                       ",
"                          . X X . . . . . . . . . . . . . . . . . . . . X . .                       ",
"                                      X . X . . . . . X . . X . X                                   ",
"                                                                                                    ",
"                                                                                                    ",
"                                                                                                    ",
"                                                                                                    ",
"                                                                                                    "
};
